<?xml version="1.0" encoding="utf-8"?>
<!-- Generator: Adobe Illustrator 25.2.1, SVG Export Plug-In . SVG Version: 6.00 Build 0)  -->
<svg version="1.1" id="Layer_1" xmlns="http://www.w3.org/2000/svg" xmlns:xlink="http://www.w3.org/1999/xlink" x="0px" y="0px"
	 viewBox="0 0 576 339.2" style="enable-background:new 0 0 576 339.2;" xml:space="preserve">
<style type="text/css">
	.st0{fill:#1D428A;}
	.st1{fill:#FFFFFF;}
	.st2{fill:#C8102E;}
</style>
<path class="st0" d="M240.9,295.7h-29.7V43.5h45.9l30.7,208c-4.6-49.4-10.6-129.3-10.6-171.3V43.5h29.7v252.2h-42l-28.3-202
	c2.5,45.2,4.2,99.3,4.2,129.6L240.9,295.7z"/>
<path class="st0" d="M357.8,186.2v77.7h5.7c10.6,0,13.8-6,13.8-18v-42.7c0-12.4-3.9-16.9-15.2-16.9L357.8,186.2z M357.8,75.3v83.3
	h4.2c12,0,15.2-4.6,15.2-18.4v-48c0-11.7-3.5-17-13.8-17L357.8,75.3z M323.9,295.7V43.5h42c27.9,0,45.2,15.2,45.2,50.5v37.1
	c0,23-7,34.6-17,40.6c9.9,6.4,17,17.7,17,37.1v36.7c0,34.6-18.4,50.1-45.2,50.1L323.9,295.7z"/>
<path class="st0" d="M454.9,219.7h18l-2.8-46.3c-1.1-18.4-3.9-76.6-6-108.1h-1.4l-4.9,108.1L454.9,219.7z M474.6,248.3h-21.2
	l-2.8,47.3h-34.3l24.7-252.2h48l24.1,252.2h-35.7L474.6,248.3z"/>
<path class="st1" d="M152.4,37H90.3c-15.1,0-27.4,12.3-27.4,27.4v210.2c0,15.2,12.3,27.5,27.4,27.5h62c15.2,0,27.5-12.3,27.5-27.5
	V64.5C179.9,49.3,167.6,37.1,152.4,37"/>
<path class="st2" d="M137,85.6l0.1,0.9c1.9,1.1,2.9,2,4.8,3.2c5.1,3.2,11.3,8.8,10.5,28.4c1.4,4.3,2,12.6,3.4,15.3
	c2.6,5.2,4.4,8.6,5.2,13.6c0,0,0.8,7.7,1.8,8.2c5.2,1.2,3.7,1.7,4.5,2.6c0.8,1.1,3.8,1,3.8,3.8c1,1.3,1.8,2.8,2.4,4.4V64.5
	c0-11.6-9.4-20.9-20.9-20.9h-20.1c3.2,1.1,5,2.5,6.1,4.6c2.6,0.2,5.7,6,0.9,14.6c2.1,1.4,0.5,3.5-1.1,6c-0.4,0.8-0.9,2.2-2.3,2.1
	c-1.8,3.8-4,7.5-5.7,7.8c-0.5,0.6-0.9,2.3-0.1,3C132.6,82.8,135.6,84.3,137,85.6"/>
<path class="st2" d="M173.4,179.8c-3.8,9.6-14.7,14.3-24.3,10.5c-9.6-3.8-14.3-14.7-10.5-24.3c2.2-5.6,7.1-9.8,13-11.3
	c-2.2-5.4-6.7-14.1-8.1-17c-1.4-2.9-4.4-20.6-5-24.2c-0.2-0.8-8.1,4.6-8.1,4.9c-0.5,0.4-5.9,14.7-6.2,15.5c-0.1,0.8-0.1,1.6-0.1,2.4
	c0,0,2.7,0.3,4.2,5s6.3,21.8,6.3,21.8c-0.4,0.4-0.8,0.9-1.3,1.2c5.9,19.8,3.8,28.3,6.5,34.1c3.3,8.2,4.2,7.1,7.1,14
	c2.1,5,4.3,24.7,5.1,25.6c3.2,4,4.9,7.2,4.9,9.5s-2.7,9.1-1.7,13c0.6,2.3,0.9,7.5,2,8.5c0,0,1,2,0.5,2.8c-0.1,0.3-0.4,0.8-0.3,1.1
	c1.8,6.2,7.4,16.8-1.8,22.3h0.2c10.2-1.6,17.7-10.4,17.6-20.7L173.4,179.8z"/>
<path class="st0" d="M149.8,270.6c-3.4-3-1.1-4.3-1.3-5.5c-2.2-9.2-9.5-14.7-5.7-17.8c-0.9-3-2.8-6.8-2.8-6.8
	c-11.4-6.5-21-17.1-22.7-18.7c-2-2.2-5.4-4.3-6-6.1c-2.7-2.5-16.1-21.5-19.3-28.5l-5.5-0.8c-2.5-10.1-10.7-18.6-10.9-28.7
	c-0.1-3.8,1.7-12,2.4-13.7s3.8-4.4,3.8-4.4V137c-11.9,0.3-8.4-0.9-10.5-5.5c-1.4-3.2-0.4-3.9,0.1-6.1c1.6-6.5,6.9-16.6,9.1-21.2
	c0.7-2.3,3-7.9,3-7.9c8.8-18,12.1-16.7,22.7-17.7l0.5-0.7c10.5-0.5,8.8-1.3,10.3-11.4c-1.6,0.7-2-3.2-2-3.2
	c-0.8-5.8,1.6-4.7,2.7-4.8c0.3-9.5,1.2-12.5,8.1-15.1H90.4c-11.6,0-21,9.4-21,21c0,0,0,0,0,0v210.2c0,11.6,9.4,21,21,21c0,0,0,0,0,0
	h62.1C145.3,291.8,149.5,284.5,149.8,270.6z"/>
</svg>
