<?xml version="1.0" standalone="no"?>
<!DOCTYPE svg PUBLIC "-//W3C//DTD SVG 20010904//EN"
 "http://www.w3.org/TR/2001/REC-SVG-20010904/DTD/svg10.dtd">
<svg version="1.0" xmlns="http://www.w3.org/2000/svg"
 width="1080.000000pt" height="1080.000000pt" viewBox="0 0 1080.000000 1080.000000"
 preserveAspectRatio="xMidYMid meet">

<g transform="translate(0.000000,1080.000000) scale(0.100000,-0.100000)"
fill="#000000" stroke="none">
<path d="M8480 6191 c-107 -34 -125 -53 -380 -399 l-240 -324 0 -108 c0 -88 3
-110 17 -121 12 -11 79 -15 292 -19 l276 -5 3 -99 c1 -55 8 -106 14 -113 14
-18 268 -19 286 -1 7 7 12 41 12 84 0 63 -3 76 -25 102 l-25 30 115 4 c89 2
118 6 125 18 15 24 13 225 -3 238 -7 6 -51 12 -97 14 l-85 3 -3 345 c-2 310
-4 346 -19 358 -26 19 -196 15 -263 -7z m-30 -526 l0 -186 -122 7 c-68 4 -126
9 -130 13 -6 5 238 351 248 351 2 0 4 -83 4 -185z"/>
<path d="M968 6055 c-126 -25 -217 -81 -265 -162 -31 -54 -42 -159 -23 -227
14 -52 66 -117 122 -152 55 -35 190 -78 355 -112 191 -41 243 -68 243 -128 0
-85 -152 -116 -362 -74 -115 24 -197 55 -260 98 l-43 30 -59 -99 c-32 -55 -56
-106 -53 -114 3 -7 43 -32 89 -54 287 -138 704 -132 876 13 54 46 84 108 90
184 6 90 -10 144 -61 199 -78 84 -154 116 -411 168 -182 38 -233 57 -256 98
-13 24 -13 30 0 55 35 63 160 86 314 57 98 -18 190 -52 250 -91 25 -17 42 -22
48 -16 5 5 34 50 63 98 62 103 65 95 -51 150 -172 81 -428 114 -606 79z"/>
<path d="M3340 6054 c-88 -18 -216 -83 -281 -141 -116 -105 -170 -231 -170
-398 0 -222 103 -386 305 -485 188 -93 387 -93 583 1 405 193 405 775 0 968
-142 68 -291 87 -437 55z m306 -264 c114 -56 174 -150 174 -275 0 -126 -59
-219 -178 -277 -61 -30 -75 -33 -157 -33 -77 0 -99 5 -151 29 -121 55 -188
156 -188 281 1 148 99 266 251 305 71 17 179 5 249 -30z"/>
<path d="M7008 6055 c-126 -25 -217 -81 -265 -162 -31 -54 -42 -159 -23 -227
14 -52 66 -117 122 -152 55 -35 190 -78 355 -112 191 -41 243 -68 243 -128 0
-85 -152 -116 -362 -74 -115 24 -197 55 -260 98 l-43 30 -59 -99 c-32 -55 -56
-106 -53 -114 3 -7 43 -32 89 -54 287 -138 704 -132 876 13 54 46 84 108 90
184 6 90 -10 144 -61 199 -78 84 -154 116 -411 168 -182 38 -233 57 -256 98
-13 24 -13 30 0 55 35 63 160 86 314 57 98 -18 190 -52 250 -91 25 -17 42 -22
48 -16 5 5 34 50 63 98 62 103 65 95 -51 150 -172 81 -428 114 -606 79z"/>
<path d="M1880 5516 l0 -526 130 0 130 0 0 184 0 185 203 3 203 3 66 33 c120
59 181 161 181 302 0 141 -61 243 -181 302 l-67 33 -332 3 -333 3 0 -525z
m631 277 c51 -58 51 -128 -1 -186 l-28 -32 -171 -3 -171 -3 0 131 0 131 171
-3 171 -3 29 -32z"/>
<path d="M4270 5515 l0 -525 130 0 130 0 0 195 0 195 118 0 119 0 139 -195
139 -195 158 0 c126 0 157 3 150 13 -6 6 -78 98 -161 204 l-150 191 56 34
c136 79 190 268 120 419 -36 78 -71 114 -146 151 l-67 33 -367 3 -368 3 0
-526z m667 289 c15 -11 34 -39 42 -61 13 -36 12 -43 -5 -79 -32 -66 -61 -74
-266 -74 l-178 0 0 121 0 120 189 -3 c174 -3 192 -5 218 -24z"/>
<path d="M5360 5935 l0 -105 230 0 230 0 0 -420 0 -420 125 0 125 0 0 420 0
420 230 0 230 0 0 105 0 105 -585 0 -585 0 0 -105z"/>
<path d="M9112 5668 l3 -373 32 -68 c120 -254 483 -353 771 -211 126 62 218
178 242 305 6 29 10 202 10 385 l0 334 -124 0 -125 0 -3 -337 c-3 -329 -4
-339 -26 -381 -45 -84 -161 -139 -276 -130 -119 10 -221 79 -245 165 -7 23
-11 164 -11 361 l0 322 -126 0 -125 0 3 -372z"/>
</g>
</svg>
