<?xml version="1.0" encoding="utf-8"?>
<!-- Generator: Adobe Illustrator 26.1.0, SVG Export Plug-In . SVG Version: 6.00 Build 0)  -->
<svg version="1.1" id="Laag_1" xmlns="http://www.w3.org/2000/svg" xmlns:xlink="http://www.w3.org/1999/xlink" x="0px" y="0px"
	 viewBox="0 0 412 309" style="enable-background:new 0 0 412 309;" xml:space="preserve">
<style type="text/css">
	.st0{fill:#5A5A59;}
</style>
<g transform="translate(0.000000,309.000000) scale(0.100000,-0.100000)">
	<path class="st0" d="M1635,2442c-42-20-73-56-84-101c-6-19-16-28-42-33c-191-40-236-53-316-93c-48-23-109-58-135-77
		c-55-40-321-282-491-448c-140-135-182-190-355-452C70,1023,56,988,80,899c39-144,147-224,300-223c113,1,213,63,265,165
		c13,25,48,141,76,257l53,211l69,76c63,69,72,75,108,75c38,0,39-1,39-37c2-150,134-243,343-243c60,0,87,11,136,55
		c71,64,83,113,91,378c4,125,10,230,12,232c2,3,48,21,103,40l98,36l-7-333c-10-504-9-699,4-733c19-51,80-104,137-121
		c44-13,77-13,220-4c358,23,398,41,484,213c58,115,82,144,130,157c38,11,46,9,127-31c184-88,257-104,567-119c303-15,428-13,473,6
		c95,39,151,140,131,235c-20,94-103,159-329,256c-76,33-326,162-1025,532c-126,67-266,138-310,157s-201,98-350,176
		C1732,2465,1704,2474,1635,2442z M1990,2214c140-73,293-150,339-170s312-157,590-304c594-314,684-360,771-396
		c98-40,207-103,230-131c40-51,19-128-43-160c-27-13-59-15-232-9c-471,17-547,29-723,112c-116,56-144,61-214,40
		c-72-21-118-68-171-175c-52-106-87-148-137-161c-63-17-427-39-466-29c-18,6-43,22-55,37l-21,27l6,455c3,250,9,505,12,567l7,112
		l-37,6c-38,8-75-3-266-76c-114-44-112-40-120-324c-5-219-7-232-30-280c-35-70-62-82-164-67c-143,21-178,62-174,199c1,48-2,83-7,84
		c-6,1-57-2-115-6l-105-7l-68-71c-116-122-112-114-171-349c-30-119-62-232-71-252c-64-135-280-147-352-19c-20,36-28,73-25,120
		c2,28,263,418,341,509c70,82,521,502,598,557c117,85,273,139,439,153l82,7l4,55c6,63,34,98,72,86C1726,2350,1850,2287,1990,2214z"
		/>
	<path class="st0" d="M1710,2233c0-26-4-53-8-59c-13-21-51-34-94-34c-60,0-203-25-263-45c-66-23-129-56-186-97
		c-77-55-516-465-585-546c-63-73-283-392-317-459c-14-27-15-37-4-69c29-90,169-105,229-24c10,14,43,124,74,245s61,230,68,242
		c23,45,182,216,212,229c17,7,89,16,160,20c124,6,130,6,148-15c17-18,19-35,17-115c-3-121,6-133,107-148c54-8,76-8,86,1
		c25,21,36,105,36,269c0,194,11,272,44,322c22,34,38,42,178,95c155,59,216,70,281,52c55-15,55-19,44-626c-12-637-20-583,87-575
		c33,2,126,9,206,14c111,8,151,15,170,29c14,9,48,62,77,116s69,115,89,136c51,53,124,82,204,83c58,1,76-4,175-51
		c61-28,135-58,165-67c67-21,268-35,539-38c185-3,205-1,215,15c23,35-27,70-221,156c-59,26-319,159-578,296
		c-529,280-705,370-850,437c-55,26-191,94-302,153l-203,106V2233z M2220,1906c111-51,1310-679,1305-684c-7-7-343,18-380,29
		c-22,6-93,36-159,66c-140,66-212,77-312,48c-137-39-203-98-281-250l-47-93l-66-6c-36-3-107-8-159-12l-93-7l6,329
		c3,181,9,405,12,497l6,168l32-19C2101,1962,2162,1932,2220,1906z M1313,1938c-12-33-18-96-22-258c-3-121-10-215-15-215
		s-10,36-11,80c-1,96-18,133-77,172c-33,22-52,28-101,28h-60l86,80c67,62,195,155,214,155C1328,1980,1322,1961,1313,1938z M415,1002
		c-14-45-19-52-41-52c-28,0-28,0,19,68c16,24,31,42,33,39C428,1055,423,1030,415,1002z"/>
	<path class="st0" d="M2081,1713c0-10,10-79,23-153l22-135l33,138c18,76,30,144,27,152c-4,11-21,15-56,15
		C2089,1730,2080,1727,2081,1713z"/>
</g>
</svg>
