<?xml version="1.0" encoding="utf-8"?>
<!-- Generator: Adobe Illustrator 26.1.0, SVG Export Plug-In . SVG Version: 6.00 Build 0)  -->
<svg version="1.1" id="Laag_1" xmlns="http://www.w3.org/2000/svg" xmlns:xlink="http://www.w3.org/1999/xlink" x="0px" y="0px"
	 viewBox="0 0 412 309" style="enable-background:new 0 0 412 309;" xml:space="preserve">
<style type="text/css">
	.st0{fill:#5C5C5B;}
</style>
<g transform="translate(0.000000,309.000000) scale(0.100000,-0.100000)">
	<path class="st0" d="M385,2941c-178-8-207-16-277-79c-53-48-78-102-78-174c0-89,30-151,122-250c14-14,81-91,149-170
		c68-78,126-145,129-148s52-58,108-123l102-118l246-492c244-487,306-596,444-772c83-106,145-198,190-282c40-73,49-84,94-105
		c41-19,65-23,135-22c77,1,182,26,982,227l896,226l175,84c192,92,232,126,271,225c22,55,19,163-6,247c-20,65-49,174-82,305
		c-15,58-39,127-53,153c-32,59-93,117-164,154l-53,28l-605,6c-333,4-657,7-720,8l-115,1l79,35c108,47,178,95,261,179
		c127,127,175,222,175,342c0,88-25,148-87,204c-69,63-128,85-258,95c-44,3-150,12-235,20s-243,21-350,30s-231,23-275,31
		c-371,66-566,103-650,121C855,2945,629,2951,385,2941z M1193,2721c446-82,588-100,1098-140c259-20,294-29,329-86
		c44-72,13-166-95-283c-201-216-439-260-860-157c-119,30-230,33-281,9c-68-32-113-117-100-186c3-18,59-132,124-253
		c125-232,144-256,217-269c76-15,110,6,245,144c132,136,178,167,287,195c48,13,170,15,768,15c479,0,723-4,749-11c21-6,59-30,83-52
		l44-42l71-264c52-198,68-272,63-298c-11-60-58-97-220-171l-150-70l-901-226c-496-124-911-226-922-226c-42,0-68,23-110,98
		c-23,42-74,120-113,172c-231,312-229,307-499,843l-260,514l-284,327c-187,215-287,337-291,357c-9,41,9,81,48,105
		c28,16,58,20,222,25c105,3,216,6,248,7C741,2799,916,2772,1193,2721z M1627,1905c105-25,251-48,383-61c63-6,71-8,50-17
		c-125-48-169-80-280-198c-61-65-117-119-123-119c-7,0-38,49-69,108c-32,59-80,148-107,198c-54,101-53,114,9,114
		C1509,1930,1571,1919,1627,1905z"/>
	<path class="st0" d="M403,2683c-57-2-103-6-103-9s124-148,276-322l275-317l256-510c266-532,271-539,484-820c41-56,95-133,118-173
		c24-40,46-72,49-72s406,101,897,225l891,225l137,65c76,36,140,72,144,81c6,16-112,476-130,505c-6,10-21,22-33,28
		c-14,6-283,10-741,11c-765,2-736,4-834-45c-19-9-90-74-159-144c-110-113-131-130-179-144c-66-21-134-22-192-2
		c-84,29-110,60-236,293c-135,250-158,306-148,372c17,114,96,212,197,246c65,21,210,15,313-15c176-49,404-65,506-35
		c119,35,222,108,294,206c45,61,55,97,33,116c-7,5-112,17-233,26c-487,37-685,62-1107,141C735,2697,765,2694,403,2683z M820,2525
		c41-9,149-29,240-45c206-38,315-58,405-75c39-8,140-21,225-29c236-23,480-46,525-49l40-3l-57-28c-32-15-82-30-112-33
		c-71-7-227,12-341,43c-129,35-261,48-346,34c-154-23-291-131-347-274l-18-46l-19,38c-16,29-281,352-378,460l-20,22h64
		C716,2540,778,2533,820,2525z M3591,1380c9-36,28-106,42-157l24-91l-89-41c-71-32-221-73-771-211c-375-95-747-188-826-208
		c-126-32-144-34-152-20c-5,8-37,54-71,101c-162,219-231,315-249,344l-21,33l44-16c98-34,219-26,327,23c20,9,95,74,167,146
		c72,71,149,137,170,147c37,17,82,18,714,17l674-2L3591,1380z"/>
	<path class="st0" d="M2802,323c-165-84-204-111-144-99c15,3,88,10,162,16c180,13,210,19,210,36c0,30-35,134-45,134
		C2979,410,2897,371,2802,323z"/>
</g>
</svg>
