<?xml version="1.0" standalone="no"?>
<!DOCTYPE svg PUBLIC "-//W3C//DTD SVG 20010904//EN"
 "http://www.w3.org/TR/2001/REC-SVG-20010904/DTD/svg10.dtd">
<svg version="1.0" xmlns="http://www.w3.org/2000/svg"
 width="412.000000pt" height="309.000000pt" viewBox="0 0 412.000000 309.000000"
 preserveAspectRatio="xMidYMid meet">
<metadata>
Created by potrace 1.16, written by Peter Selinger 2001-2019
</metadata>
<g transform="translate(0.000000,309.000000) scale(0.100000,-0.100000)"
fill="#000000" stroke="none">
<path d="M3570 2875 c-154 -45 -511 -154 -540 -164 -14 -5 -115 -38 -225 -73
-185 -58 -203 -66 -242 -104 -82 -82 -82 -173 1 -375 6 -13 -9 -22 -71 -43
-43 -15 -116 -41 -163 -58 -47 -16 -123 -43 -170 -59 -99 -35 -125 -47 -284
-132 -138 -75 -161 -93 -193 -163 -21 -47 -32 -56 -134 -119 -88 -53 -113 -65
-120 -54 -5 8 -9 20 -9 27 0 25 -39 90 -70 115 -17 15 -54 34 -83 43 -39 12
-59 25 -75 50 -12 19 -40 46 -63 61 -36 23 -50 27 -117 26 -64 -1 -103 -10
-227 -51 -145 -48 -324 -121 -431 -175 -92 -47 -156 -146 -235 -368 -31 -86
-42 -137 -49 -215 -14 -159 -11 -381 5 -420 16 -39 76 -100 108 -110 12 -4 58
-30 102 -58 104 -67 156 -100 290 -182 110 -68 110 -68 185 -68 123 -1 173 40
257 212 l55 114 127 99 c219 173 219 173 263 268 22 47 45 97 52 111 11 24
133 106 390 261 124 75 186 98 691 254 219 68 335 105 380 120 22 7 108 34
190 60 169 53 325 103 626 200 l206 67 26 53 c51 105 48 131 -68 460 -37 105
-74 213 -82 240 -10 34 -30 65 -62 96 -66 67 -141 84 -241 54z m124 -136 c14
-7 28 -19 31 -28 4 -9 47 -130 96 -269 89 -253 105 -326 77 -350 -14 -11 -366
-124 -1243 -400 -297 -94 -577 -184 -623 -200 -80 -29 -226 -112 -497 -284
l-129 -83 -42 -102 c-23 -57 -47 -110 -55 -119 -7 -9 -82 -70 -166 -136 -84
-65 -164 -133 -177 -151 -13 -18 -48 -81 -77 -140 -54 -112 -79 -137 -131
-137 -13 0 -125 64 -248 142 -124 77 -241 149 -261 159 -20 10 -39 24 -41 31
-3 7 -2 112 2 233 7 213 8 223 37 301 43 111 88 209 113 245 39 54 358 194
565 247 98 25 103 26 129 9 16 -11 30 -33 38 -60 10 -40 13 -42 50 -43 22 -1
45 -7 51 -13 6 -6 19 -11 28 -11 39 0 59 -33 79 -130 11 -52 23 -105 25 -118
l6 -23 33 20 c18 12 42 21 53 21 11 0 104 52 206 116 l187 116 0 37 c0 50 16
63 180 149 102 53 209 96 440 177 168 58 308 109 312 113 3 4 -18 72 -47 152
-59 158 -64 187 -37 218 17 21 261 103 742 251 241 74 256 77 294 60z"/>
<path d="M3320 2551 c-173 -53 -374 -117 -446 -142 l-131 -44 53 -145 c55
-151 61 -178 44 -211 -16 -28 -37 -37 -380 -157 -234 -82 -345 -127 -433 -174
-109 -59 -117 -65 -111 -88 3 -14 7 -26 8 -28 2 -1 70 20 152 47 82 28 435
140 784 250 844 266 939 296 946 304 8 7 -155 487 -165 486 -3 0 -148 -45
-321 -98z m279 -192 c17 -47 31 -91 31 -97 0 -6 -114 -48 -252 -92 -139 -45
-279 -90 -311 -101 -71 -24 -77 -24 -77 0 0 10 -14 60 -31 111 -17 51 -27 95
-23 100 5 4 63 24 129 45 66 20 161 50 210 65 260 83 280 88 287 71 4 -9 21
-55 37 -102z"/>
<path d="M910 1594 c-101 -30 -309 -111 -400 -157 -75 -37 -94 -65 -162 -245
l-41 -107 -3 -180 -4 -180 53 -31 c28 -17 133 -82 231 -144 102 -64 182 -108
184 -102 12 37 94 193 120 228 16 23 98 94 181 159 84 64 158 127 166 139 12
19 75 170 75 181 0 3 -7 5 -15 5 -23 0 -44 52 -71 182 -30 140 -49 167 -116
166 -52 -1 -85 24 -98 72 -6 22 -12 40 -13 39 -1 0 -40 -11 -87 -25z m24 -163
c22 -24 98 -61 125 -61 16 0 21 -9 27 -47 8 -56 38 -164 52 -189 19 -35 -17
-79 -147 -181 -174 -136 -201 -163 -245 -237 -21 -36 -44 -66 -50 -66 -6 1
-65 36 -131 78 l-120 78 0 119 c0 128 7 158 67 301 25 59 36 74 66 89 39 19
323 134 333 135 3 0 14 -9 23 -19z"/>
<path d="M3810 1795 c-30 -7 -91 -20 -135 -29 -119 -25 -155 -36 -155 -46 0
-20 50 -120 60 -120 14 0 300 192 300 202 0 9 3 9 -70 -7z"/>
</g>
</svg>
