<?xml version="1.0" standalone="no"?>
<!DOCTYPE svg PUBLIC "-//W3C//DTD SVG 20010904//EN"
 "http://www.w3.org/TR/2001/REC-SVG-20010904/DTD/svg10.dtd">
<svg version="1.0" xmlns="http://www.w3.org/2000/svg"
 width="412.000000pt" height="309.000000pt" viewBox="0 0 412.000000 309.000000"
 preserveAspectRatio="xMidYMid meet">
<metadata>
Created by potrace 1.16, written by Peter Selinger 2001-2019
</metadata>
<g transform="translate(0.000000,309.000000) scale(0.100000,-0.100000)"
fill="#000000" stroke="none">
<path d="M2920 2846 c-52 -19 -147 -55 -210 -80 -286 -112 -389 -152 -595
-230 -121 -46 -257 -95 -303 -110 -173 -57 -280 -121 -565 -340 -91 -70 -118
-86 -174 -100 -140 -34 -238 -107 -303 -222 -23 -42 -93 -119 -244 -269 -257
-255 -257 -254 -435 -638 -52 -112 -64 -159 -55 -211 23 -142 144 -215 286
-173 52 16 629 385 709 453 13 12 21 12 50 -3 22 -11 55 -17 94 -17 61 1 417
78 535 116 58 19 205 90 332 162 55 31 80 32 173 7 88 -24 133 -41 218 -81 74
-35 132 -93 191 -191 104 -173 226 -315 364 -426 173 -139 379 -223 548 -223
158 0 250 60 364 236 101 155 118 226 79 329 -40 107 -113 166 -321 259 l-78
35 15 35 c9 21 15 67 15 114 0 64 -5 87 -26 129 -31 63 -89 117 -158 149 -48
21 -379 122 -529 160 -44 11 -79 27 -98 45 -27 25 -30 33 -27 80 l3 53 185 46
c212 53 250 64 406 126 62 24 117 44 122 44 5 0 22 -19 39 -42 49 -67 112
-125 162 -150 36 -18 63 -23 121 -23 65 0 83 5 130 31 67 38 115 97 136 170
18 64 13 115 -21 190 -22 50 -260 337 -382 462 -100 101 -211 125 -349 74 -45
-17 -53 -17 -70 -4 -10 8 -41 25 -69 38 -73 35 -146 32 -265 -10z m213 -117
c12 -6 41 -30 64 -52 l42 -40 78 33 c92 40 172 46 216 17 30 -20 336 -366 379
-429 38 -56 44 -98 22 -144 -24 -48 -60 -74 -111 -81 -67 -9 -105 17 -194 132
-43 57 -86 106 -95 109 -8 3 -47 -8 -85 -25 -193 -84 -300 -120 -539 -178
-202 -50 -246 -69 -266 -116 -29 -70 -11 -223 32 -274 40 -48 102 -77 244
-114 164 -43 425 -124 461 -143 42 -21 86 -79 94 -122 5 -30 0 -58 -19 -114
-14 -41 -26 -81 -26 -90 0 -36 47 -71 193 -142 157 -77 195 -104 223 -158 31
-60 1 -137 -111 -285 -60 -81 -110 -108 -200 -106 -130 2 -293 67 -432 172
-118 89 -217 199 -332 370 -57 85 -120 172 -139 194 -66 72 -287 167 -459 197
-94 17 -116 10 -292 -86 -156 -85 -217 -107 -466 -162 -247 -55 -250 -55 -284
-38 -30 16 -41 34 -41 67 0 10 -2 19 -5 19 -3 0 -33 -22 -68 -49 -93 -73 -246
-177 -497 -339 -254 -163 -289 -177 -328 -127 -12 15 -22 37 -22 49 0 32 159
370 214 456 32 51 116 144 260 290 120 121 225 236 240 263 57 101 132 155
236 172 64 10 81 21 285 175 235 177 288 208 470 270 174 60 457 167 805 305
354 141 397 152 453 124z"/>
<path d="M3025 2636 c-22 -8 -179 -68 -350 -136 -393 -154 -556 -216 -741
-280 -214 -75 -239 -89 -529 -309 -126 -96 -172 -125 -215 -137 -30 -8 -72
-19 -93 -25 -51 -14 -97 -57 -142 -133 -27 -46 -96 -123 -247 -272 -130 -130
-223 -231 -244 -266 -39 -64 -177 -348 -172 -354 2 -2 33 16 68 39 287 184
465 304 580 390 109 82 140 101 168 101 43 0 82 -41 82 -85 0 -25 3 -29 22
-24 13 3 104 23 203 45 224 50 269 66 426 151 141 77 167 88 224 100 86 17
339 -51 497 -133 104 -54 157 -108 273 -282 125 -187 185 -259 291 -344 102
-82 196 -132 304 -161 85 -24 134 -26 170 -8 45 22 160 192 160 235 0 30 -46
61 -194 131 -71 34 -145 73 -164 87 -65 50 -79 137 -40 250 40 112 28 119
-347 224 -264 73 -280 79 -343 119 -69 45 -95 80 -119 161 -17 58 -22 180 -10
243 9 42 52 96 100 126 18 11 130 45 248 75 208 53 381 110 523 175 72 33 128
39 171 19 14 -6 53 -48 87 -92 90 -119 108 -136 140 -136 41 0 48 40 14 84
-35 47 -237 279 -298 344 -59 62 -76 65 -176 22 -45 -19 -88 -30 -118 -30 -43
0 -50 4 -95 50 -52 54 -55 55 -114 36z m109 -206 c11 -5 35 -12 51 -15 l30 -7
-35 -15 c-58 -24 -147 -51 -354 -103 -214 -54 -248 -68 -319 -130 -80 -71
-107 -147 -107 -304 0 -157 39 -273 120 -353 l41 -42 -38 19 c-107 51 -310
100 -416 100 -92 0 -153 -20 -306 -102 -175 -93 -198 -103 -306 -127 -55 -13
-113 -27 -129 -32 -46 -14 -82 -11 -101 11 -10 11 -37 31 -61 45 -85 50 -164
27 -320 -91 -61 -46 -113 -84 -116 -84 -3 0 57 63 133 140 94 96 150 161 174
205 33 58 41 66 78 75 143 37 178 56 357 195 133 102 253 187 305 212 22 11
94 39 160 61 66 22 176 62 245 88 69 26 141 53 160 60 19 7 94 36 165 64 72
28 175 69 230 90 55 21 138 54 185 73 l85 34 34 -30 c18 -15 43 -32 55 -37z
m-289 -1086 c39 -9 122 -32 185 -51 63 -20 132 -40 153 -46 28 -8 36 -15 31
-27 -3 -8 -8 -47 -11 -85 -10 -122 27 -209 118 -280 38 -29 170 -99 247 -131
l23 -9 -34 -40 -35 -40 -83 27 c-188 62 -324 189 -525 493 -32 49 -86 118
-119 154 -37 40 -52 62 -40 58 11 -3 52 -14 90 -23z"/>
<path d="M975 755 c-65 -75 -115 -138 -112 -141 8 -8 308 148 314 163 5 12
-65 113 -78 113 -4 0 -60 -61 -124 -135z"/>
</g>
</svg>
