<?xml version="1.0" standalone="no"?>
<!DOCTYPE svg PUBLIC "-//W3C//DTD SVG 20010904//EN"
 "http://www.w3.org/TR/2001/REC-SVG-20010904/DTD/svg10.dtd">
<svg version="1.0" xmlns="http://www.w3.org/2000/svg"
 width="412.000000pt" height="309.000000pt" viewBox="0 0 412.000000 309.000000"
 preserveAspectRatio="xMidYMid meet">
<metadata>
Created by potrace 1.16, written by Peter Selinger 2001-2019
</metadata>
<g transform="translate(0.000000,309.000000) scale(0.100000,-0.100000)"
fill="#000000" stroke="none">
<path d="M2755 2874 c-523 -26 -688 -36 -714 -44 -28 -8 -71 -30 -256 -130
-27 -15 -79 -43 -115 -62 -180 -98 -322 -174 -385 -208 -38 -21 -180 -97 -315
-170 -135 -73 -272 -147 -305 -165 -33 -18 -105 -56 -160 -85 -270 -144 -407
-274 -460 -439 -41 -127 29 -291 154 -362 l36 -20 1 -162 c0 -139 3 -173 23
-237 80 -261 274 -452 513 -505 71 -15 163 -16 1095 -12 1105 5 1144 7 1249
60 140 71 215 239 215 482 1 231 -59 432 -162 550 l-30 34 98 -33 c94 -33 244
-79 348 -107 77 -21 189 -17 258 10 173 68 231 188 244 512 6 149 2 169 -61
312 -61 140 -171 319 -291 477 -78 102 -153 164 -277 228 -148 77 -139 75
-398 77 -129 1 -266 0 -305 -1z m571 -189 c116 -53 207 -119 262 -188 129
-163 246 -355 308 -504 l37 -88 -6 -130 c-7 -180 -29 -269 -76 -316 -36 -36
-91 -59 -142 -59 -65 0 -524 142 -627 194 -108 55 -193 189 -200 315 -6 98 5
129 103 306 103 185 131 243 122 251 -8 8 -102 -38 -225 -111 l-87 -51 -66
-134 c-42 -85 -79 -146 -101 -166 -78 -71 -240 -98 -308 -51 -89 60 -100 135
-47 300 19 59 32 107 28 107 -31 0 -328 -113 -421 -160 -59 -30 -59 -30 -82
-102 -28 -93 -29 -181 -2 -234 17 -32 36 -47 110 -86 192 -101 477 -223 704
-299 129 -44 261 -94 294 -112 81 -43 166 -124 199 -189 50 -100 62 -167 62
-353 0 -154 -2 -175 -24 -228 -28 -72 -74 -119 -132 -136 -76 -23 -363 -30
-1279 -30 -978 -1 -951 -3 -1058 62 -126 76 -223 210 -262 363 -24 94 -26 238
-5 339 8 38 15 72 15 75 0 3 -39 25 -86 49 -91 46 -127 85 -140 149 -15 75 98
224 239 316 29 19 408 228 843 464 l792 431 163 11 c208 15 545 26 812 28
l208 2 75 -35z m-1241 -630 c20 -166 133 -272 300 -283 112 -7 196 15 327 86
3 1 14 -23 23 -55 21 -73 54 -137 100 -198 26 -34 32 -46 19 -41 -11 4 -98 34
-194 66 -180 59 -284 101 -475 190 -262 122 -258 119 -249 168 10 63 13 68 57
89 42 21 67 31 78 32 4 1 10 -24 14 -54z"/>
<path d="M2635 2599 c-137 -4 -315 -13 -395 -19 l-145 -10 -790 -432 c-434
-237 -810 -445 -835 -461 -61 -42 -144 -127 -159 -166 -18 -41 -8 -52 88 -101
42 -21 89 -52 105 -69 35 -36 37 -64 13 -166 -34 -145 -15 -314 49 -422 42
-72 121 -145 194 -181 l55 -27 815 -3 c823 -3 1302 7 1353 27 45 18 70 86 75
209 8 195 -28 340 -102 415 -63 62 -138 98 -367 176 -234 79 -422 157 -664
276 -183 91 -207 111 -240 206 -45 127 6 354 95 418 51 37 238 117 387 165
157 50 206 48 238 -14 21 -41 19 -57 -20 -179 -37 -113 -42 -150 -25 -182 20
-36 137 -21 189 25 13 11 52 80 86 152 l63 132 79 51 c43 29 127 77 186 107
132 66 181 71 227 25 16 -16 32 -40 35 -53 10 -39 -27 -128 -132 -316 -80
-145 -97 -184 -101 -227 -9 -104 60 -229 146 -267 68 -29 381 -132 488 -159
79 -20 95 -21 122 -10 37 16 47 42 62 161 19 161 15 204 -33 310 -52 113 -132
245 -232 379 -82 111 -105 131 -225 195 l-85 46 -175 -2 c-96 0 -287 -5 -425
-9z m854 -429 c43 -63 99 -157 124 -209 42 -83 47 -100 47 -160 0 -96 -7 -114
-39 -106 -77 18 -409 130 -425 144 -25 22 -46 65 -46 94 0 13 43 100 95 193
52 93 95 174 95 179 0 6 6 17 13 24 15 15 28 0 136 -159z m-1977 -227 c3 -112
5 -122 40 -193 63 -130 116 -166 478 -332 231 -106 264 -119 467 -187 290 -96
359 -136 383 -219 15 -53 31 -231 24 -268 l-6 -31 -105 -7 c-59 -3 -517 -6
-1020 -6 -1033 0 -949 -7 -1027 81 -67 73 -81 117 -81 249 0 104 2 119 24 153
22 36 23 41 11 100 -17 85 -43 134 -107 193 l-54 52 30 21 c16 12 169 97 338
190 353 193 423 231 513 282 36 20 70 37 76 38 8 1 13 -36 16 -116z"/>
<path d="M795 2435 c-146 -132 -178 -166 -139 -151 18 7 71 27 292 108 45 17
82 36 82 42 -1 16 -71 136 -80 136 -3 0 -72 -61 -155 -135z"/>
</g>
</svg>
