<?xml version="1.0" standalone="no"?>
<!DOCTYPE svg PUBLIC "-//W3C//DTD SVG 20010904//EN"
 "http://www.w3.org/TR/2001/REC-SVG-20010904/DTD/svg10.dtd">
<svg version="1.0" xmlns="http://www.w3.org/2000/svg"
 width="412.000000pt" height="309.000000pt" viewBox="0 0 412.000000 309.000000"
 preserveAspectRatio="xMidYMid meet">
<metadata>
Created by potrace 1.16, written by Peter Selinger 2001-2019
</metadata>
<g transform="translate(0.000000,309.000000) scale(0.100000,-0.100000)"
fill="#000000" stroke="none">
<path d="M720 2714 c-176 -33 -283 -64 -390 -112 -25 -11 -65 -28 -89 -38 -53
-22 -131 -96 -159 -150 -59 -117 -20 -275 84 -336 45 -26 116 -37 173 -26 l50
9 67 -63 c100 -95 172 -142 369 -238 186 -90 202 -98 395 -185 210 -94 219
-99 225 -122 17 -70 150 -157 495 -325 124 -61 369 -181 545 -268 290 -143
342 -165 555 -235 281 -92 306 -99 435 -126 81 -16 111 -28 157 -59 125 -87
228 -103 327 -49 51 26 60 37 79 82 64 158 22 251 -146 322 -217 92 -337 176
-485 339 -155 173 -240 286 -231 310 13 40 16 113 5 152 -6 21 -36 73 -67 114
-30 41 -79 107 -107 145 -129 175 -322 346 -595 528 -200 133 -246 152 -368
152 -71 0 -87 -4 -146 -33 l-66 -34 -82 65 c-46 36 -115 82 -155 102 -64 33
-82 37 -171 42 -76 3 -112 0 -154 -13 -30 -9 -92 -19 -138 -21 -80 -4 -84 -4
-103 22 -51 64 -147 80 -309 49z m203 -138 c12 -13 32 -36 45 -51 l23 -28 117
7 c71 4 142 14 180 26 150 47 219 22 467 -170 49 -39 97 -70 105 -70 9 0 28
17 41 37 48 74 156 97 251 55 72 -31 325 -203 443 -299 61 -50 142 -124 180
-164 77 -82 249 -305 273 -355 14 -31 14 -35 -12 -77 -16 -29 -23 -52 -19 -64
24 -66 188 -274 346 -439 123 -129 279 -232 477 -314 74 -31 90 -47 90 -87 0
-39 -45 -93 -78 -93 -33 0 -85 22 -132 55 -71 51 -97 61 -215 85 -60 12 -233
62 -383 112 -226 74 -305 105 -455 180 -100 50 -328 161 -507 248 -293 141
-525 266 -573 308 -9 8 -20 32 -23 52 -7 43 11 32 -314 180 -310 141 -532 253
-603 304 -34 24 -100 83 -147 130 -46 47 -92 86 -100 86 -9 0 -31 -11 -50 -25
-48 -36 -94 -33 -131 6 -36 39 -40 104 -9 154 21 35 80 79 120 90 14 4 53 20
87 36 76 36 176 63 318 88 147 26 162 26 188 -3z"/>
<path d="M675 2470 c-124 -26 -196 -49 -240 -76 -11 -6 -38 -17 -60 -24 -47
-15 -95 -56 -95 -83 0 -18 1 -18 28 1 32 24 88 39 120 34 13 -2 75 -53 138
-113 63 -60 139 -125 169 -145 63 -40 251 -131 569 -276 264 -120 332 -154
342 -170 4 -7 10 -28 13 -47 6 -31 16 -40 96 -89 50 -31 268 -142 485 -247
217 -106 454 -222 527 -258 146 -72 556 -212 738 -252 26 -5 24 -2 -21 28
-151 103 -474 469 -540 612 -29 61 -30 89 -4 137 l19 36 -93 124 c-119 158
-178 222 -301 325 -106 90 -387 282 -450 309 -20 8 -53 14 -73 12 -29 -2 -42
-11 -70 -48 -40 -52 -66 -69 -107 -70 -38 0 -67 18 -223 137 -70 53 -141 102
-159 109 -44 19 -131 17 -184 -3 -34 -13 -80 -17 -203 -17 l-158 -1 -38 43
c-45 50 -47 51 -225 12z m138 -124 c3 -8 32 -27 64 -42 56 -28 63 -29 203 -28
102 1 164 6 210 19 132 34 119 38 275 -81 77 -58 161 -117 187 -130 96 -49
242 -22 299 55 l21 29 57 -35 c303 -191 466 -333 617 -537 l48 -67 -3 -72 c-5
-120 44 -212 228 -430 28 -33 -92 20 -519 230 -223 110 -427 210 -455 223 -27
12 -96 48 -151 79 -83 46 -104 62 -113 89 -29 78 -80 110 -389 248 -291 130
-534 248 -592 288 -25 16 -71 55 -103 85 l-59 56 74 16 c93 22 95 22 101 5z"/>
<path d="M460 1745 c69 -69 128 -125 131 -125 8 0 82 111 77 115 -8 8 -311
135 -321 135 -7 0 44 -56 113 -125z"/>
</g>
</svg>
