<?xml version="1.0" standalone="no"?>
<!DOCTYPE svg PUBLIC "-//W3C//DTD SVG 20010904//EN"
 "http://www.w3.org/TR/2001/REC-SVG-20010904/DTD/svg10.dtd">
<svg version="1.0" xmlns="http://www.w3.org/2000/svg"
 width="412.000000pt" height="309.000000pt" viewBox="0 0 412.000000 309.000000"
 preserveAspectRatio="xMidYMid meet">
<metadata>
Created by potrace 1.16, written by Peter Selinger 2001-2019
</metadata>
<g transform="translate(0.000000,309.000000) scale(0.100000,-0.100000)"
fill="#000000" stroke="none">
<path d="M185 2466 c-37 -16 -97 -81 -112 -121 -13 -37 -33 -163 -33 -211 0
-97 94 -174 195 -161 40 6 44 4 55 -23 25 -59 76 -96 193 -139 62 -22 150 -50
197 -61 95 -22 202 -71 300 -136 97 -64 218 -107 305 -107 74 -1 107 11 163
58 l31 26 298 -150 c164 -83 368 -187 453 -232 523 -272 578 -299 625 -299
105 0 185 76 185 176 0 37 6 41 35 21 72 -48 218 -74 332 -58 46 7 90 14 99
18 12 4 10 -7 -8 -53 -18 -46 -23 -79 -23 -149 0 -80 3 -94 25 -125 59 -83
134 -123 242 -128 97 -5 160 15 224 71 67 59 104 141 104 232 0 70 -37 318
-66 445 -42 178 -165 288 -364 324 -47 9 -121 23 -165 31 -44 8 -154 28 -245
45 -152 28 -196 36 -380 71 -36 7 -98 27 -138 46 -41 18 -76 33 -80 33 -3 0
-27 20 -52 44 -48 46 -111 76 -160 76 -43 0 -110 -29 -145 -61 l-31 -29 -159
30 c-88 17 -194 36 -235 44 -41 8 -115 22 -165 31 -49 9 -121 23 -160 30 -38
8 -234 44 -435 81 -201 37 -381 71 -400 75 -28 7 -46 23 -83 73 -51 69 -116
123 -188 156 -52 23 -186 27 -234 6z m198 -112 c59 -30 104 -73 153 -144 26
-38 54 -72 63 -75 9 -2 394 -74 856 -160 l840 -156 41 48 c37 42 46 48 83 48
35 0 48 -7 88 -46 32 -30 80 -60 143 -88 90 -41 122 -48 573 -132 308 -58 492
-96 517 -109 53 -27 109 -84 131 -134 22 -52 30 -88 68 -310 35 -204 32 -237
-25 -304 -43 -51 -89 -72 -154 -72 -63 0 -144 40 -166 82 -31 60 -6 163 76
316 41 76 52 136 28 160 -19 19 -37 14 -81 -22 -60 -48 -119 -75 -201 -93
-119 -25 -229 0 -343 77 -68 47 -103 50 -140 14 -20 -20 -24 -31 -19 -57 20
-97 19 -134 -3 -156 -11 -11 -33 -21 -47 -21 -15 0 -225 103 -478 234 -248
128 -559 288 -692 354 l-241 121 -49 -50 c-72 -73 -102 -79 -211 -43 -49 16
-119 49 -158 75 -125 83 -223 125 -355 155 -74 16 -173 50 -239 82 -38 17 -61
62 -61 116 0 45 -19 51 -106 31 -114 -26 -132 -7 -114 122 13 88 38 134 84
154 28 12 99 3 139 -17z"/>
<path d="M263 2278 c-5 -7 -13 -32 -16 -56 l-5 -43 41 7 c121 23 177 -17 189
-135 4 -31 70 -59 238 -103 124 -32 292 -106 372 -163 49 -36 168 -85 205 -85
10 0 43 25 73 55 44 45 61 55 87 55 36 0 388 -173 1027 -504 198 -102 360
-186 360 -186 1 0 0 30 -2 68 -3 57 0 72 20 101 55 81 152 97 241 40 117 -74
145 -84 242 -84 101 1 157 20 229 79 23 18 51 38 63 44 55 29 122 1 153 -63
33 -69 27 -108 -39 -243 -76 -154 -89 -197 -65 -223 9 -11 34 -24 55 -30 50
-15 106 11 134 62 l19 37 -33 193 c-18 106 -40 214 -47 240 -18 59 -84 121
-146 137 -24 6 -230 46 -458 87 -228 42 -438 82 -466 90 -98 28 -247 103 -281
142 l-32 37 -41 -46 c-22 -26 -49 -49 -59 -53 -28 -8 -1739 312 -1774 333 -17
9 -53 50 -81 90 -28 40 -68 84 -89 98 -46 31 -99 41 -114 22z m1911 -638 c129
-24 189 -21 228 9 23 18 25 17 149 -40 124 -57 168 -69 394 -110 l70 -13 -65
-13 c-86 -18 -147 -56 -189 -120 l-35 -52 -150 78 c-83 43 -240 124 -348 181
-178 91 -224 117 -185 105 6 -2 66 -13 131 -25z m1069 -195 c106 -20 201 -40
212 -44 18 -8 16 -11 -19 -26 -86 -37 -178 -26 -250 29 -43 32 -89 55 -133 65
-93 22 16 8 190 -24z"/>
<path d="M1952 1211 c4 -12 247 -231 256 -231 13 0 74 112 66 119 -9 8 -309
121 -320 121 -3 0 -4 -4 -2 -9z"/>
</g>
</svg>
