<?xml version="1.0" standalone="no"?>
<!DOCTYPE svg PUBLIC "-//W3C//DTD SVG 20010904//EN"
 "http://www.w3.org/TR/2001/REC-SVG-20010904/DTD/svg10.dtd">
<svg version="1.0" xmlns="http://www.w3.org/2000/svg"
 width="412.000000pt" height="309.000000pt" viewBox="0 0 412.000000 309.000000"
 preserveAspectRatio="xMidYMid meet">

<g transform="translate(0.000000,309.000000) scale(0.100000,-0.100000)"
fill="#000000" stroke="none">
<path d="M1216 3019 c-135 -19 -264 -114 -305 -224 -28 -74 -28 -166 1 -242
28 -77 117 -165 265 -263 l113 -75 0 -72 c0 -80 15 -164 100 -563 32 -151 66
-313 75 -360 20 -101 51 -166 98 -207 l35 -31 -152 -5 c-94 -3 -173 -11 -211
-22 -167 -46 -387 -202 -435 -308 -43 -93 -14 -226 62 -293 78 -68 15 -65
1128 -62 l1005 3 62 29 c76 35 144 104 181 184 36 77 37 182 3 259 l-23 52 27
33 c16 18 35 49 43 68 21 50 42 356 49 721 7 358 3 382 -67 461 -52 59 -131
100 -270 138 -63 18 -126 38 -140 45 -15 8 -38 38 -54 72 -96 198 -115 232
-163 284 -67 72 -133 102 -223 103 -66 0 -128 -23 -231 -85 l-37 -22 -81 57
c-56 40 -81 64 -81 78 0 57 -79 153 -147 179 -42 16 -223 46 -358 58 -189 18
-206 18 -269 10z m379 -160 c77 -11 157 -24 177 -30 50 -13 88 -60 88 -109 0
-36 4 -42 78 -97 100 -76 194 -133 218 -133 11 0 59 25 109 55 96 59 134 71
191 61 64 -12 110 -67 181 -216 36 -74 76 -150 90 -168 32 -43 101 -77 221
-108 193 -52 245 -93 257 -209 8 -67 -9 -547 -26 -773 -7 -86 -17 -159 -26
-175 -25 -49 -46 -52 -220 -32 -198 23 -334 25 -356 6 -23 -19 -21 -46 5 -71
21 -19 33 -20 204 -19 174 2 183 1 229 -22 29 -14 60 -41 79 -67 27 -39 31
-52 31 -111 0 -57 -4 -74 -28 -109 -15 -23 -46 -54 -69 -69 l-41 -28 -366 -6
c-201 -4 -644 -7 -984 -8 -501 -1 -624 2 -650 13 -58 24 -87 93 -64 149 32 76
223 207 348 239 51 13 135 18 365 23 335 8 344 10 344 71 0 52 -30 74 -160
122 -193 71 -197 75 -230 253 -12 63 -44 213 -70 334 -76 344 -100 484 -100
576 l0 85 -47 35 c-27 19 -88 62 -138 94 -192 128 -247 221 -196 330 27 58 80
104 147 126 71 23 189 20 409 -12z"/>
<path d="M1215 2776 c-22 -9 -53 -29 -68 -47 -24 -25 -28 -38 -23 -63 10 -51
36 -76 192 -183 82 -56 161 -116 177 -133 26 -29 27 -35 27 -129 0 -102 19
-208 120 -683 23 -106 48 -225 56 -264 8 -40 23 -78 32 -87 9 -8 58 -29 107
-47 134 -49 182 -76 215 -122 39 -54 42 -137 8 -188 -52 -76 -42 -74 -416 -86
-256 -8 -347 -15 -377 -26 -60 -23 -143 -74 -203 -125 -96 -82 -158 -77 926
-70 1044 7 994 4 1027 67 23 44 18 76 -16 115 l-31 35 -186 0 c-168 0 -190 2
-229 21 -114 55 -124 207 -17 263 33 18 56 21 154 20 63 -1 173 -9 244 -18 72
-8 131 -14 132 -13 6 6 25 302 34 542 10 242 8 336 -6 386 -6 22 -77 52 -184
79 -114 29 -200 71 -245 121 -20 23 -66 101 -101 174 -66 137 -108 195 -141
195 -10 0 -62 -25 -114 -56 -102 -61 -147 -73 -203 -54 -72 24 -312 196 -337
241 -6 12 -11 36 -11 55 0 19 -6 35 -14 38 -25 10 -297 44 -394 50 -71 5 -105
2 -135 -8z m327 -148 c82 -10 87 -12 99 -40 17 -42 128 -139 254 -224 125 -83
161 -100 232 -110 64 -8 139 13 213 60 l55 35 57 -119 c98 -202 191 -279 409
-337 l104 -28 3 -75 c4 -84 -16 -585 -25 -613 -3 -14 -11 -17 -26 -13 -12 4
-92 9 -177 13 -128 5 -165 3 -212 -11 -205 -59 -270 -302 -123 -465 l37 -41
-176 0 -176 0 38 38 c64 64 87 123 87 222 0 76 -3 91 -30 138 -47 85 -110 135
-231 181 -58 23 -109 41 -114 41 -8 0 -14 19 -26 95 -3 22 -24 121 -46 220
-89 407 -100 469 -107 610 -10 199 -31 231 -232 365 -52 34 -98 67 -104 73
-11 10 55 6 217 -15z"/>
<path d="M2518 177 c-93 -17 -167 -32 -165 -33 3 -3 333 -74 343 -74 2 0 4 32
4 70 0 39 -3 69 -7 69 -5 -1 -83 -15 -175 -32z"/>
</g>
</svg>
