<?xml version="1.0" standalone="no"?>
<!DOCTYPE svg PUBLIC "-//W3C//DTD SVG 20010904//EN"
 "http://www.w3.org/TR/2001/REC-SVG-20010904/DTD/svg10.dtd">
<svg version="1.0" xmlns="http://www.w3.org/2000/svg"
 width="638.000000pt" height="479.000000pt" viewBox="0 0 638.000000 479.000000"
 preserveAspectRatio="xMidYMid meet">
<metadata>
Created by potrace 1.16, written by Peter Selinger 2001-2019
</metadata>
<g transform="translate(0.000000,479.000000) scale(0.100000,-0.100000)"
fill="#000000" stroke="none">
<path d="M5550 4101 c-36 -8 -109 -37 -185 -71 -23 -10 -66 -29 -96 -40 -29
-12 -77 -32 -107 -46 -29 -13 -55 -24 -57 -24 -3 0 -27 -10 -53 -21 -48 -22
-94 -42 -147 -64 -16 -7 -46 -20 -65 -28 -111 -49 -207 -67 -358 -67 -63 0
-237 -5 -386 -11 -300 -12 -273 -15 -616 51 -102 20 -136 26 -290 51 -95 16
-419 17 -528 1 -45 -6 -121 -17 -170 -22 -279 -35 -399 -60 -592 -121 -126
-39 -184 -83 -227 -169 -18 -36 -33 -76 -33 -90 0 -21 -13 -32 -88 -69 -225
-115 -260 -155 -348 -396 -53 -145 -122 -342 -144 -405 -19 -57 -46 -130 -60
-165 -5 -11 -16 -40 -24 -65 -8 -25 -29 -83 -46 -130 -17 -47 -40 -110 -51
-140 -32 -88 -49 -158 -49 -205 0 -41 22 -143 35 -164 3 -5 -7 -19 -22 -31
-15 -11 -68 -58 -117 -104 -50 -45 -136 -122 -191 -171 -126 -112 -150 -139
-179 -195 -78 -150 -29 -345 108 -430 74 -45 185 -62 279 -41 23 5 74 15 112
21 39 6 192 31 340 56 391 66 412 69 495 69 41 0 113 -6 160 -13 315 -49 371
-55 443 -48 89 8 150 38 217 106 63 63 124 179 172 323 74 225 70 304 -36 710
-39 153 -44 181 -33 198 13 17 33 19 283 23 148 3 361 9 474 15 113 5 273 13
357 17 l151 7 31 -25 c74 -63 186 -74 286 -29 87 40 245 112 323 147 144 65
194 92 288 156 140 94 228 175 444 408 69 74 154 163 190 199 67 66 78 72 390
218 126 59 188 115 219 198 37 99 24 174 -61 353 -51 106 -108 193 -142 215
-77 51 -102 60 -181 63 -44 2 -96 -1 -115 -5z m181 -198 c42 -36 159 -273 159
-323 0 -61 -30 -94 -127 -141 -48 -23 -146 -70 -218 -104 -71 -34 -145 -75
-163 -90 -19 -16 -119 -119 -224 -229 -239 -252 -346 -350 -467 -430 -119 -78
-578 -290 -629 -290 -34 0 -58 19 -87 68 -9 15 -48 15 -555 -9 -697 -32 -700
-32 -790 1 -41 16 -75 23 -80 18 -31 -31 -130 -212 -130 -237 0 -16 29 -143
64 -281 75 -294 81 -328 66 -421 -22 -146 -112 -359 -174 -413 -68 -60 -86
-60 -387 -17 -214 30 -286 37 -352 32 -45 -3 -286 -40 -536 -82 -285 -47 -465
-73 -486 -69 -77 14 -125 73 -125 152 0 63 43 112 312 353 136 121 249 226
251 232 2 7 -9 57 -25 112 -20 69 -27 113 -24 140 7 49 396 1130 428 1186 26
47 72 79 219 154 59 30 116 66 127 80 11 13 22 46 26 72 8 63 37 108 83 131
145 73 743 172 1038 172 154 0 228 -9 565 -72 l275 -50 340 6 c187 4 402 11
478 16 170 11 201 22 662 218 302 129 335 141 392 141 53 1 66 -3 94 -26z"/>
<path d="M5315 3709 c-411 -175 -496 -208 -579 -224 -78 -15 -549 -35 -837
-35 -144 0 -177 4 -425 49 -337 62 -410 71 -548 71 -205 0 -659 -63 -860 -119
-76 -21 -142 -43 -147 -48 -5 -5 -14 -36 -20 -68 -20 -108 -49 -135 -266 -244
-51 -25 -91 -53 -106 -73 -20 -28 -388 -1023 -419 -1134 -8 -30 -5 -51 18
-123 32 -103 35 -157 12 -193 -10 -15 -131 -129 -270 -255 -139 -125 -258
-234 -265 -243 -20 -24 -15 -58 11 -75 22 -14 56 -10 477 61 250 41 499 78
554 81 82 4 145 -2 349 -31 137 -21 261 -34 276 -31 16 3 35 14 43 23 26 29
83 152 112 242 44 137 40 189 -35 480 -71 274 -81 340 -55 391 47 91 131 222
157 244 38 32 81 32 160 0 77 -31 57 -31 761 1 616 28 612 28 645 -25 9 -14
17 -27 18 -29 7 -10 503 227 574 275 84 56 241 207 554 532 l129 133 229 112
c149 72 228 116 228 126 0 8 -26 67 -58 130 l-57 115 -40 2 c-32 2 -99 -23
-320 -118z m-86 -237 c-44 -29 -108 -91 -249 -242 -214 -229 -327 -336 -438
-410 -57 -39 -107 -70 -112 -70 -5 0 -57 -23 -117 -50 -212 -99 -183 -91 -227
-68 -34 17 -58 20 -175 19 -130 0 -363 -10 -741 -31 -294 -17 -420 -14 -477
11 -35 16 -69 22 -128 22 -138 1 -200 -44 -308 -226 -79 -133 -94 -166 -106
-229 -13 -72 -7 -107 63 -383 81 -322 78 -299 56 -385 -10 -41 -28 -97 -40
-124 l-22 -49 -62 7 c-33 4 -86 11 -116 16 -30 4 -121 16 -201 26 -138 17
-155 17 -275 2 -71 -9 -212 -31 -313 -48 -101 -17 -186 -29 -189 -26 -3 3 21
29 54 58 146 132 165 153 194 214 43 89 42 151 -8 319 -9 31 -7 38 58 215 18
47 36 96 40 110 5 14 27 77 50 140 23 63 54 151 70 195 16 44 43 118 60 165
17 47 38 103 45 125 52 147 40 131 155 192 58 31 117 62 131 70 47 24 114 100
138 155 13 29 26 59 30 67 9 19 152 57 281 76 183 26 243 34 335 47 50 6 162
12 250 11 158 0 198 -5 480 -59 335 -64 337 -64 770 -53 570 15 651 28 930
153 127 57 157 67 114 38z"/>
<path d="M4219 3976 c-2 -3 -60 -14 -129 -26 -69 -11 -150 -25 -180 -31 -30
-6 -77 -13 -104 -17 -77 -11 -66 -26 31 -46 49 -10 104 -22 123 -26 19 -4 80
-17 135 -29 55 -11 110 -23 123 -27 22 -6 22 -5 22 100 0 93 -5 118 -21 102z"/>
</g>
</svg>
