<?xml version="1.0" standalone="no"?>
<!DOCTYPE svg PUBLIC "-//W3C//DTD SVG 20010904//EN"
 "http://www.w3.org/TR/2001/REC-SVG-20010904/DTD/svg10.dtd">
<svg version="1.0" xmlns="http://www.w3.org/2000/svg"
 width="412.000000pt" height="309.000000pt" viewBox="0 0 412.000000 309.000000"
 preserveAspectRatio="xMidYMid meet">

<g transform="translate(0.000000,309.000000) scale(0.100000,-0.100000)"
fill="#000000" stroke="none">
<path d="M3715 2764 c-16 -3 -95 -21 -174 -40 -159 -39 -305 -91 -421 -149
-93 -46 -418 -242 -643 -386 l-167 -108 -48 22 c-65 29 -145 28 -203 -4 -49
-27 -86 -73 -176 -218 -94 -150 -95 -155 -49 -370 42 -192 43 -232 9 -299 -18
-35 -101 -102 -127 -102 -6 0 -22 20 -35 45 -37 70 -96 131 -155 160 -43 21
-67 26 -132 26 -112 0 -179 -26 -254 -101 -54 -54 -59 -56 -81 -44 -13 8 -55
23 -93 35 -124 39 -255 7 -326 -79 l-28 -35 -154 17 c-202 21 -267 6 -349 -81
-53 -55 -72 -99 -77 -180 -4 -64 -1 -78 26 -137 33 -70 105 -155 163 -192 90
-56 85 -56 819 -54 371 0 706 5 743 11 141 19 283 84 349 158 46 53 85 124 96
178 7 32 13 38 49 50 41 14 41 15 57 86 26 117 29 185 12 317 -19 145 -21 294
-5 339 6 17 13 31 15 31 8 0 148 -72 186 -96 27 -17 48 -44 73 -94 64 -127
131 -179 229 -180 128 0 228 114 214 243 -3 23 -27 96 -53 162 -58 145 -65
187 -37 241 41 80 177 185 281 220 72 23 146 15 311 -36 115 -36 145 -41 200
-37 83 5 150 39 213 106 101 108 142 261 102 382 -44 130 -205 216 -360 193z
m128 -136 c85 -26 134 -112 115 -202 -12 -59 -64 -142 -111 -180 -57 -46 -122
-43 -306 13 -134 41 -150 43 -228 38 -68 -4 -97 -11 -160 -41 -154 -73 -257
-167 -309 -281 -37 -81 -31 -144 31 -300 60 -152 66 -191 31 -228 -29 -31 -78
-36 -113 -12 -12 9 -41 52 -64 96 -23 43 -50 90 -60 102 -9 13 -91 61 -181
107 l-164 84 -37 -28 c-30 -23 -41 -42 -63 -110 -25 -77 -26 -88 -20 -231 3
-82 11 -179 17 -215 13 -77 5 -195 -16 -227 -10 -14 -29 -25 -54 -29 l-38 -6
-5 -62 c-6 -75 -28 -123 -78 -174 -45 -47 -158 -97 -251 -111 -35 -5 -363 -11
-729 -13 -546 -2 -673 0 -708 11 -92 31 -182 144 -182 232 0 61 31 107 92 138
l48 23 140 -16 c225 -26 241 -23 280 39 51 82 154 95 282 36 102 -47 120 -43
196 35 73 76 115 97 192 97 91 0 128 -28 199 -154 31 -57 74 -89 119 -89 10 0
51 16 90 35 84 42 153 113 177 183 32 93 30 153 -10 327 -22 100 -34 171 -30
190 3 17 41 84 83 150 65 100 83 121 114 133 36 14 40 13 111 -21 l74 -35 124
81 c215 139 636 395 721 438 119 60 265 113 408 147 188 46 211 49 273 30z"/>
<path d="M3585 2505 c-101 -26 -309 -96 -321 -108 -1 -1 37 -3 84 -4 70 -1
113 -9 217 -41 181 -55 185 -55 221 -33 34 21 84 109 84 148 0 13 -11 35 -25
48 -34 35 -96 32 -260 -10z"/>
<path d="M2680 2052 c-85 -54 -179 -114 -208 -134 l-54 -36 153 -78 c124 -64
156 -86 177 -117 14 -20 26 -36 28 -35 1 2 -9 36 -23 77 -37 110 -35 199 5
285 17 36 43 82 58 101 14 19 25 35 23 35 -2 0 -74 -44 -159 -98z"/>
<path d="M2092 1797 c-34 -56 -62 -110 -62 -120 0 -10 14 -79 31 -154 27 -115
31 -149 27 -227 -7 -124 -33 -189 -110 -272 -114 -121 -261 -172 -363 -125
-48 22 -70 46 -118 127 -52 87 -67 98 -123 91 -42 -4 -53 -12 -113 -74 -99
-104 -158 -115 -288 -53 -35 16 -79 32 -98 36 -34 6 -39 3 -88 -49 -87 -92
-92 -93 -295 -72 -191 21 -221 17 -236 -27 -15 -41 35 -116 96 -147 l48 -23
702 9 703 9 67 28 c107 44 148 106 148 223 0 57 25 93 64 93 54 1 54 -1 26
342 -10 126 -10 159 3 220 20 99 53 182 82 210 14 13 25 26 25 29 0 6 -46 29
-58 29 -4 0 -35 -46 -70 -103z m-669 -894 l37 -53 -113 1 c-91 0 -108 2 -92
12 10 7 42 33 70 59 27 26 53 44 56 40 3 -4 22 -31 42 -59z m-456 -56 c3 -4
-22 -7 -56 -7 l-61 0 15 24 c16 24 16 24 56 7 21 -10 42 -21 46 -24z"/>
<path d="M1283 417 c-84 -17 -153 -34 -153 -37 0 -3 60 -16 133 -28 72 -13
144 -26 160 -29 l27 -5 0 66 c0 36 -3 66 -7 65 -5 0 -77 -15 -160 -32z"/>
</g>
</svg>
