<?xml version="1.0" standalone="no"?>
<!DOCTYPE svg PUBLIC "-//W3C//DTD SVG 20010904//EN"
 "http://www.w3.org/TR/2001/REC-SVG-20010904/DTD/svg10.dtd">
<svg version="1.0" xmlns="http://www.w3.org/2000/svg"
 width="412.000000pt" height="309.000000pt" viewBox="0 0 412.000000 309.000000"
 preserveAspectRatio="xMidYMid meet">

<g transform="translate(0.000000,309.000000) scale(0.100000,-0.100000)"
fill="#000000" stroke="none">
<path d="M3405 2914 c-74 -17 -126 -34 -250 -80 -298 -111 -585 -228 -970
-394 -552 -238 -813 -347 -1375 -575 -266 -108 -506 -208 -533 -223 -64 -35
-153 -132 -188 -205 -71 -152 -61 -366 24 -472 14 -18 50 -44 78 -59 76 -38
139 -35 242 9 44 19 93 35 108 35 14 0 44 6 66 14 l40 14 48 -65 c56 -76 106
-115 170 -133 89 -25 133 -13 553 154 248 98 415 159 455 165 34 6 124 12 199
15 l136 6 43 -36 c24 -20 66 -48 93 -62 45 -24 62 -27 146 -26 87 0 103 4 195
41 55 22 123 48 152 57 l51 17 50 -35 c72 -52 136 -78 227 -91 l80 -11 133
-319 c119 -289 137 -324 176 -362 48 -46 95 -63 177 -63 67 0 146 36 182 83
39 53 158 324 164 378 11 91 -49 193 -136 232 -42 18 -43 20 -37 55 9 53 25
614 27 967 2 333 -2 378 -57 545 -30 94 -40 113 -77 148 -24 21 -59 44 -78 51
-27 9 -38 21 -52 56 -28 66 -72 122 -115 144 -39 20 -113 33 -147 25z m100
-170 c11 -14 34 -57 50 -97 30 -70 31 -72 75 -80 25 -5 55 -18 68 -30 24 -22
63 -132 81 -232 21 -108 6 -1124 -19 -1368 -6 -59 -10 -112 -8 -119 2 -6 31
-12 67 -12 58 -2 66 -5 92 -34 16 -18 29 -42 29 -53 0 -34 -131 -318 -154
-334 -30 -22 -98 -19 -128 5 -18 14 -66 118 -173 373 l-147 354 -106 7 c-117
7 -152 19 -239 85 -82 62 -94 61 -291 -14 -231 -88 -259 -87 -380 14 l-63 53
-187 -7 c-103 -4 -216 -13 -251 -21 -36 -8 -236 -83 -445 -166 -224 -88 -400
-152 -426 -155 -66 -6 -94 17 -201 166 -52 72 -97 131 -101 131 -5 0 -8 -10
-8 -23 0 -51 -62 -97 -131 -97 -17 0 -66 -16 -109 -35 -87 -39 -108 -42 -151
-19 -82 42 -90 254 -15 372 55 88 91 108 457 256 588 238 1016 416 1509 629
474 203 1038 429 1167 466 79 23 110 20 138 -15z"/>
<path d="M3270 2616 c-261 -96 -618 -241 -1000 -406 -513 -221 -833 -355
-1390 -580 -261 -106 -488 -201 -503 -212 -15 -11 -41 -43 -57 -71 -26 -46
-30 -62 -30 -133 0 -44 3 -83 6 -87 4 -3 34 8 68 25 34 17 85 34 115 37 l55 6
12 55 c7 33 21 61 34 72 27 22 78 23 107 3 12 -8 66 -77 121 -153 55 -76 107
-144 116 -151 14 -12 71 8 410 143 216 85 422 162 457 171 41 9 143 17 284 21
248 7 217 14 330 -81 37 -31 56 -39 84 -39 20 0 107 28 194 62 96 38 173 62
196 62 56 0 113 -23 188 -76 l66 -48 113 -7 c121 -8 141 -15 172 -53 10 -13
81 -175 158 -360 76 -185 143 -335 147 -333 5 1 31 50 57 109 l47 106 -69 4
c-75 6 -103 22 -111 65 -2 14 1 89 9 167 7 77 19 386 25 685 13 582 10 655
-32 779 -20 60 -22 63 -65 73 -66 17 -88 40 -120 124 -16 41 -33 75 -39 75 -5
-1 -75 -25 -155 -54z m90 -140 c0 -24 79 -103 119 -120 66 -26 66 -31 63 -586
-2 -267 -6 -488 -9 -493 -3 -5 -17 3 -32 17 -47 45 -116 68 -225 75 -99 6
-102 7 -155 48 -32 24 -83 51 -123 64 -103 33 -169 25 -351 -45 l-147 -56 -56
46 c-61 49 -86 61 -151 73 -60 12 -435 -7 -523 -25 -41 -9 -233 -79 -426 -155
-194 -76 -356 -139 -360 -139 -5 0 -38 42 -74 92 -36 51 -80 109 -98 129 l-32
37 212 85 c433 174 626 255 1193 498 568 243 1123 468 1158 469 9 0 17 -6 17
-14z"/>
<path d="M782 2085 c-84 -18 -155 -35 -158 -37 -4 -5 34 -107 45 -120 4 -4 74
37 156 92 83 55 141 100 130 99 -11 0 -89 -16 -173 -34z"/>
</g>
</svg>
