<?xml version="1.0" standalone="no"?>
<!DOCTYPE svg PUBLIC "-//W3C//DTD SVG 20010904//EN"
 "http://www.w3.org/TR/2001/REC-SVG-20010904/DTD/svg10.dtd">
<svg version="1.0" xmlns="http://www.w3.org/2000/svg"
 width="412.000000pt" height="309.000000pt" viewBox="0 0 412.000000 309.000000"
 preserveAspectRatio="xMidYMid meet">
<metadata>
Created by potrace 1.16, written by Peter Selinger 2001-2019
</metadata>
<g transform="translate(0.000000,309.000000) scale(0.100000,-0.100000)"
fill="#000000" stroke="none">
<path d="M3375 2899 c-55 -22 -208 -93 -340 -158 -207 -102 -248 -126 -296
-174 -84 -82 -112 -147 -117 -273 -4 -87 -1 -108 17 -149 24 -55 27 -93 8
-120 -11 -14 -28 -18 -83 -18 -54 0 -96 8 -194 40 -149 49 -164 52 -350 62
-140 8 -149 10 -260 54 -71 28 -160 54 -230 68 -146 27 -477 104 -510 118 -14
6 -38 21 -53 33 -44 35 -149 38 -219 6 -62 -29 -105 -69 -126 -118 -8 -19 -41
-64 -75 -99 -80 -86 -142 -172 -182 -251 -31 -63 -145 -340 -160 -390 -4 -14
-28 -77 -53 -140 -54 -138 -65 -189 -97 -430 -29 -212 -30 -271 -11 -354 9
-39 11 -68 5 -83 -28 -75 3 -195 66 -258 46 -46 79 -59 238 -95 158 -36 258
-16 325 65 75 92 69 256 -12 336 -35 35 -55 96 -62 193 l-7 81 50 34 c27 18
59 48 70 65 26 38 76 182 139 397 51 175 60 257 35 316 -15 38 -9 51 66 140
l44 52 222 -76 c315 -107 423 -149 449 -173 61 -57 170 -88 245 -70 65 16 75
15 178 -14 207 -60 299 -71 575 -70 207 0 272 3 345 18 236 49 443 154 578
294 119 123 413 505 463 602 57 110 31 256 -58 320 -40 29 -141 71 -214 90
-31 8 -45 17 -53 39 -18 42 -80 98 -130 116 -69 24 -116 18 -226 -26z m201
-132 c22 -19 28 -34 32 -81 l5 -56 31 5 c63 12 233 -41 275 -86 25 -28 27 -77
5 -122 -37 -72 -338 -462 -433 -560 -130 -136 -324 -230 -541 -262 -128 -20
-456 -20 -576 0 -124 20 -256 52 -332 81 -78 29 -87 29 -119 4 -14 -11 -36
-20 -50 -20 -34 0 -86 24 -114 52 -15 16 -85 48 -194 88 -253 93 -546 190
-576 190 -14 0 -45 -13 -67 -30 -55 -39 -156 -168 -195 -246 l-31 -63 32 -29
c22 -21 32 -39 32 -59 0 -61 -140 -514 -169 -547 -21 -23 -65 -46 -90 -46 -15
0 -23 -10 -30 -38 -14 -49 -14 -227 0 -294 15 -74 58 -166 80 -173 28 -9 45
-76 29 -115 -26 -64 -68 -73 -195 -45 -141 31 -165 42 -186 90 -17 39 -18 46
-4 85 13 37 13 50 0 114 -21 101 -19 173 14 402 23 157 36 218 61 280 17 43
58 149 90 234 126 339 163 406 297 549 51 55 93 108 93 118 1 25 19 47 57 66
42 22 66 21 88 -3 29 -32 289 -105 510 -145 149 -26 226 -47 307 -81 113 -48
141 -54 323 -64 155 -9 170 -12 287 -52 117 -41 128 -43 238 -43 100 0 121 3
157 23 57 30 71 55 85 149 11 79 11 82 -16 143 -24 53 -28 72 -23 116 7 73 50
147 108 190 49 36 364 192 529 263 110 47 139 50 176 18z"/>
<path d="M3240 2599 c-296 -144 -348 -174 -377 -218 -30 -44 -31 -126 -3 -181
25 -48 26 -124 4 -222 -13 -58 -23 -77 -56 -109 -62 -60 -132 -82 -263 -82
-103 0 -117 2 -235 42 -109 38 -140 44 -255 51 -221 15 -245 20 -361 65 -120
48 -150 56 -319 86 -218 40 -491 113 -521 140 -27 25 -34 24 -34 -6 0 -17 -22
-46 -73 -97 -145 -145 -182 -206 -280 -458 -31 -80 -79 -203 -107 -274 -50
-128 -61 -178 -95 -421 -19 -141 -19 -218 1 -296 14 -54 14 -71 3 -116 -7 -33
-9 -57 -3 -62 5 -5 45 -16 89 -26 137 -29 135 -29 135 -11 0 9 -7 19 -15 22
-21 8 -60 78 -84 146 -46 134 -46 359 -1 449 23 45 33 52 84 59 l39 5 29 85
c16 47 49 156 74 243 l46 158 -31 28 c-43 40 -41 80 8 175 88 170 248 326 334
326 28 0 416 -129 647 -215 109 -40 163 -66 183 -86 33 -35 48 -36 87 -8 34
26 72 22 170 -16 92 -36 336 -83 470 -91 173 -9 406 9 515 41 130 37 265 107
338 174 86 80 409 488 453 572 l15 30 -58 26 c-40 19 -75 27 -117 27 -74 1
-75 -1 -50 -137 17 -97 17 -98 -3 -125 -33 -44 -114 -43 -135 2 -7 17 -7 33 0
55 8 22 7 44 -4 85 -13 49 -13 63 2 128 25 109 29 158 13 157 -8 0 -124 -54
-259 -120z m95 -243 c-8 -62 27 -180 58 -193 18 -8 16 -12 -20 -58 -86 -109
-222 -201 -347 -234 -36 -10 -38 -9 -32 12 40 150 43 280 8 359 -16 36 -18 50
-9 61 7 9 84 51 172 95 l160 80 8 -37 c5 -20 6 -58 2 -85z"/>
<path d="M187 2049 c-85 -134 -157 -250 -157 -253 0 -5 132 -58 134 -54 7 10
66 351 62 355 -3 3 -20 -19 -39 -48z"/>
</g>
</svg>
