<?xml version="1.0" standalone="no"?>
<!DOCTYPE svg PUBLIC "-//W3C//DTD SVG 20010904//EN"
 "http://www.w3.org/TR/2001/REC-SVG-20010904/DTD/svg10.dtd">
<svg version="1.0" xmlns="http://www.w3.org/2000/svg"
 width="412.000000pt" height="309.000000pt" viewBox="0 0 412.000000 309.000000"
 preserveAspectRatio="xMidYMid meet">

<g transform="translate(0.000000,309.000000) scale(0.100000,-0.100000)"
fill="#000000" stroke="none">
<path d="M1410 3044 c-66 -18 -120 -52 -153 -96 -26 -35 -45 -80 -282 -663
-81 -198 -245 -598 -365 -890 -120 -291 -226 -559 -236 -595 -27 -95 -24 -265
5 -344 62 -172 231 -323 411 -367 37 -10 119 -14 255 -14 195 0 201 1 256 26
104 49 170 137 189 255 12 70 10 86 -40 359 -22 116 -45 247 -53 292 l-14 82
31 -16 c64 -34 116 -22 296 65 91 44 209 97 263 117 290 106 684 162 961 136
144 -14 166 -23 112 -45 -64 -27 -136 -45 -235 -61 -246 -40 -392 -181 -360
-349 20 -109 119 -210 284 -291 185 -92 397 -116 531 -60 66 27 111 81 182
219 63 122 94 172 254 407 89 131 111 190 112 304 2 240 -152 430 -389 480
-44 9 -161 17 -315 21 -213 6 -254 4 -309 -11 -89 -23 -167 -60 -299 -143
-170 -106 -219 -112 -457 -52 -178 45 -317 57 -430 38 -49 -8 -91 -14 -93 -13
-1 1 8 24 20 51 17 39 23 79 29 192 9 167 17 197 102 397 35 83 72 174 82 203
43 132 -20 288 -143 351 -54 27 -136 34 -202 15z m125 -95 c80 -22 143 -116
133 -197 -3 -21 -42 -126 -86 -233 -45 -107 -86 -217 -92 -244 -7 -28 -15
-111 -19 -186 -12 -214 -31 -237 -262 -314 -143 -48 -169 -65 -169 -112 0 -31
34 -63 68 -63 15 0 95 23 177 50 376 127 447 132 765 55 82 -20 171 -35 205
-35 70 0 166 23 210 49 203 125 258 154 329 177 81 26 82 26 315 19 261 -7
307 -13 392 -51 142 -64 238 -247 210 -401 -15 -77 -38 -122 -133 -255 -99
-138 -136 -198 -218 -353 -74 -142 -83 -152 -135 -176 -51 -23 -174 -25 -277
-4 -102 21 -240 90 -311 155 -70 64 -87 94 -87 155 0 39 5 51 41 90 54 58 123
90 239 110 167 28 270 64 323 113 21 21 27 35 27 70 0 101 -81 126 -405 126
-413 0 -756 -84 -1144 -278 -152 -77 -172 -75 -234 19 -28 43 -37 50 -69 53
-31 3 -40 -1 -55 -24 -17 -26 -16 -33 16 -223 18 -108 48 -275 67 -371 50
-258 45 -351 -24 -423 -56 -59 -94 -71 -248 -75 -283 -8 -413 39 -540 195 -63
77 -87 149 -87 258 0 52 7 115 16 151 9 33 118 308 243 610 124 302 305 742
401 979 96 236 186 454 201 485 29 59 67 88 131 101 20 4 38 7 41 8 3 0 23 -4
45 -10z"/>
<path d="M1418 2864 c-16 -8 -35 -31 -44 -52 -9 -20 -70 -170 -136 -332 -66
-162 -248 -606 -404 -985 -156 -380 -291 -722 -300 -760 -20 -85 -14 -185 15
-250 24 -54 119 -157 176 -191 72 -42 162 -56 336 -52 174 3 189 8 237 78 33
50 29 123 -27 422 -81 429 -88 482 -71 530 38 107 182 118 242 19 46 -77 36
-77 172 -9 296 148 558 228 891 269 204 25 550 11 637 -26 90 -38 132 -139 94
-229 -32 -77 -157 -136 -372 -175 -284 -52 -327 -161 -114 -293 112 -70 218
-100 352 -102 103 -1 118 11 193 155 86 164 113 209 210 344 47 66 97 144 112
173 67 137 2 327 -137 397 -67 34 -137 43 -380 51 l-215 6 -80 -26 c-47 -16
-127 -56 -195 -99 -156 -97 -213 -119 -325 -124 -92 -5 -92 -5 -355 57 -107
25 -272 28 -357 6 -34 -9 -137 -41 -229 -71 -193 -64 -237 -72 -288 -55 -99
32 -113 183 -22 239 17 11 76 34 131 51 225 72 226 74 236 270 8 167 22 218
114 439 40 97 77 188 80 204 10 37 0 70 -31 106 -22 27 -32 31 -72 31 -26 -1
-59 -8 -74 -16z m74 -110 c-2 -10 -35 -92 -73 -182 -93 -220 -109 -278 -116
-440 -4 -91 -10 -138 -19 -147 -17 -16 -143 -59 -151 -51 -4 4 218 562 322
809 16 39 43 46 37 11z m1863 -1025 c112 -17 184 -97 185 -207 0 -65 -9 -82
-127 -251 -91 -130 -171 -264 -229 -383 -30 -62 -31 -62 -114 -59 -59 3 -142
22 -198 47 -57 25 -142 82 -142 96 0 14 62 34 145 47 193 31 336 90 407 169
49 55 68 105 68 179 0 157 -108 259 -300 283 -47 6 -141 14 -210 18 l-125 7
35 19 c92 51 132 56 345 50 110 -3 227 -10 260 -15z m-1464 -164 c40 -9 74
-17 76 -18 1 -2 -48 -23 -110 -47 -61 -23 -162 -66 -223 -95 l-111 -52 -26 32
c-36 45 -101 75 -168 76 l-54 1 100 34 c202 70 255 83 352 83 50 1 124 -6 164
-14z m-786 -135 c28 0 74 7 101 15 68 21 77 18 24 -6 -56 -25 -86 -53 -113
-104 -36 -66 -29 -171 38 -525 32 -168 60 -335 62 -372 5 -63 4 -67 -21 -83
-23 -15 -47 -17 -184 -13 -135 4 -164 7 -207 27 -59 26 -117 79 -153 141 -23
38 -27 56 -26 120 0 92 -4 80 167 495 76 187 141 345 144 351 2 6 25 0 60 -18
40 -20 71 -28 108 -28z"/>
<path d="M704 1995 c-48 -64 -85 -117 -83 -119 18 -16 93 -46 99 -39 4 4 19
53 34 108 14 55 30 115 35 133 5 17 8 32 5 32 -2 0 -43 -52 -90 -115z"/>
</g>
</svg>
