<?xml version="1.0" standalone="no"?>
<!DOCTYPE svg PUBLIC "-//W3C//DTD SVG 20010904//EN"
 "http://www.w3.org/TR/2001/REC-SVG-20010904/DTD/svg10.dtd">
<svg version="1.0" xmlns="http://www.w3.org/2000/svg"
 width="638.000000pt" height="479.000000pt" viewBox="0 0 638.000000 479.000000"
 preserveAspectRatio="xMidYMid meet">

<g transform="translate(0.000000,479.000000) scale(0.100000,-0.100000)"
fill="#000000" stroke="none">
<path d="M5825 4224 c-29 -9 -142 -77 -265 -159 -118 -79 -271 -178 -340 -221
-214 -135 -333 -221 -497 -357 -493 -412 -864 -725 -905 -765 -28 -27 -57 -68
-70 -99 -18 -44 -26 -53 -47 -53 -71 0 -165 -45 -415 -194 -95 -57 -210 -123
-257 -146 -137 -69 -178 -122 -188 -245 l-6 -70 -40 2 c-128 8 -235 7 -270 -4
-53 -16 -152 -77 -214 -130 -58 -51 -108 -123 -122 -179 -10 -37 -15 -42 -59
-58 l-49 -18 -38 38 c-21 20 -66 50 -101 66 -80 39 -157 46 -242 23 -36 -9
-128 -21 -205 -25 -219 -14 -278 -33 -782 -256 -391 -173 -388 -172 -449 -236
-70 -73 -97 -147 -92 -248 10 -226 206 -373 435 -326 146 29 246 100 357 252
50 70 91 104 162 135 52 24 92 26 314 19 62 -2 127 2 158 9 52 13 52 13 87
-18 118 -104 274 -122 472 -56 168 57 245 107 421 278 157 151 193 176 321
218 226 75 352 165 502 362 51 66 113 134 142 156 114 86 251 135 473 171 133
21 228 104 277 241 20 57 29 68 79 103 l57 39 198 -23 c232 -27 335 -23 466
15 121 35 195 71 312 150 307 209 482 397 608 651 57 115 84 190 143 404 42
150 49 188 49 265 0 74 -4 98 -23 133 -70 132 -223 199 -357 156z m161 -169
c37 -24 64 -75 64 -121 0 -54 -91 -391 -136 -504 -91 -226 -240 -418 -451
-577 -332 -252 -470 -292 -838 -244 -230 30 -228 30 -321 -30 -114 -74 -131
-93 -154 -171 -22 -73 -55 -120 -102 -144 -16 -8 -75 -22 -131 -30 -203 -31
-390 -113 -511 -224 -32 -30 -90 -96 -128 -147 -125 -166 -228 -241 -429 -312
-63 -22 -137 -53 -164 -67 -26 -15 -114 -91 -195 -169 -81 -78 -174 -158 -207
-178 -124 -76 -291 -126 -376 -113 -57 9 -125 52 -157 99 -32 48 -55 53 -132
29 -95 -30 -141 -34 -263 -21 -94 10 -121 10 -187 -4 -135 -28 -238 -93 -324
-206 -87 -113 -115 -140 -178 -171 -36 -18 -87 -34 -119 -37 -77 -8 -156 29
-192 91 -44 76 -30 179 33 239 34 33 694 325 856 379 109 36 136 41 266 49 80
5 170 15 200 24 30 8 70 15 89 15 50 0 117 -36 154 -82 36 -45 74 -68 111 -68
27 0 198 63 233 85 15 10 25 33 33 72 15 72 46 118 110 166 111 83 175 97 327
73 75 -12 118 -1 168 45 46 42 65 92 65 169 0 59 13 77 83 108 34 16 159 87
277 157 273 164 300 175 454 185 67 5 123 9 124 9 2 1 -8 15 -22 32 -41 48
-36 101 12 148 40 39 835 708 991 834 53 42 174 128 269 190 94 61 281 183
413 270 133 87 251 163 263 168 29 12 92 4 122 -16z"/>
<path d="M5730 3859 c-91 -61 -219 -145 -285 -186 -300 -189 -407 -266 -606
-434 -74 -63 -289 -244 -479 -403 -190 -159 -349 -292 -354 -297 -4 -4 1 -18
13 -30 11 -13 21 -26 21 -31 0 -18 18 -7 24 15 10 40 76 106 165 164 135 89
145 90 363 65 360 -43 467 -24 679 124 215 149 332 261 433 414 90 137 120
211 192 474 55 204 58 236 16 236 -9 0 -91 -50 -182 -111z m-39 -272 c-79
-228 -230 -414 -476 -586 -192 -134 -268 -158 -445 -140 -58 6 -106 12 -108
14 -3 3 344 298 448 380 42 33 130 95 195 138 219 144 398 257 402 254 2 -2
-6 -29 -16 -60z"/>
<path d="M3284 2065 c-11 -7 -55 -32 -98 -55 l-78 -41 -4 -48 c-2 -27 -11 -68
-19 -92 l-16 -43 31 29 c18 17 55 62 83 100 28 39 69 89 91 112 41 43 46 64
10 38z"/>
<path d="M2590 1653 c-24 -9 -93 -59 -121 -87 -18 -18 -30 -46 -38 -86 -13
-64 -44 -111 -91 -135 -15 -8 -72 -31 -126 -52 -164 -62 -232 -51 -330 53 -58
61 -73 64 -179 39 -33 -8 -112 -17 -175 -21 -144 -7 -187 -16 -325 -69 -167
-65 -728 -315 -747 -333 -10 -10 -20 -31 -24 -49 -5 -27 -1 -37 25 -64 29 -29
36 -31 81 -27 68 7 136 51 182 118 59 85 149 174 217 214 131 76 247 98 439
83 112 -10 121 -9 207 17 50 14 99 26 110 26 40 -1 102 -38 131 -78 59 -84
131 -92 280 -32 114 45 171 86 324 235 134 130 187 170 284 211 l50 22 -39 11
c-42 11 -110 13 -135 4z"/>
<path d="M4520 3549 c-80 -94 -147 -176 -149 -182 -2 -6 7 -4 20 4 13 9 98 55
189 102 91 47 173 92 183 100 18 12 15 17 -35 80 -29 36 -55 66 -58 67 -3 0
-71 -77 -150 -171z"/>
</g>
</svg>
