<?xml version="1.0" standalone="no"?>
<!DOCTYPE svg PUBLIC "-//W3C//DTD SVG 20010904//EN"
 "http://www.w3.org/TR/2001/REC-SVG-20010904/DTD/svg10.dtd">
<svg version="1.0" xmlns="http://www.w3.org/2000/svg"
 width="412.000000pt" height="309.000000pt" viewBox="0 0 412.000000 309.000000"
 preserveAspectRatio="xMidYMid meet">

<g transform="translate(0.000000,309.000000) scale(0.100000,-0.100000)"
fill="#000000" stroke="none">
<path d="M3243 2750 c-126 -30 -207 -198 -207 -430 -1 -85 4 -108 41 -220 47
-139 73 -237 73 -270 0 -21 -3 -22 -52 -16 -585 65 -790 89 -822 98 -23 5
-172 99 -358 225 -176 118 -340 224 -365 235 -95 42 -173 4 -299 -145 -48 -56
-91 -106 -95 -111 -4 -5 -37 18 -73 50 -36 33 -94 76 -128 97 -53 32 -70 37
-120 37 -131 0 -212 -74 -387 -356 -68 -109 -187 -295 -264 -411 -84 -129
-143 -229 -148 -253 -20 -87 25 -177 135 -273 41 -36 82 -69 91 -74 9 -6 19
-33 26 -72 15 -94 36 -126 161 -247 62 -60 125 -130 140 -156 69 -120 233
-166 326 -91 62 50 87 117 157 425 84 368 88 381 142 512 26 61 48 113 49 115
2 2 56 -44 121 -101 140 -124 152 -132 244 -168 69 -27 72 -29 93 -82 46 -113
107 -172 201 -196 63 -17 463 -55 511 -49 69 7 117 46 155 122 17 36 38 65 45
65 7 0 18 -17 25 -37 19 -59 106 -139 170 -157 66 -19 606 -86 692 -86 72 0
146 30 188 76 34 37 133 172 148 201 32 63 31 106 -25 771 -38 457 -59 665
-70 690 -30 72 -101 120 -201 137 -33 5 -47 14 -68 45 -32 46 -86 85 -140 99
-45 12 -65 12 -112 1z m126 -169 c20 -22 47 -54 61 -71 23 -29 33 -33 99 -40
115 -13 108 5 141 -356 62 -686 84 -1001 70 -1035 -16 -36 -113 -166 -144
-191 -29 -24 -123 -23 -312 1 -82 11 -207 27 -277 36 -71 8 -142 22 -158 30
-41 22 -63 61 -69 125 l-5 55 -50 6 c-27 3 -85 9 -127 13 l-77 7 -25 -84 c-31
-100 -46 -117 -109 -117 -82 0 -430 40 -456 53 -14 7 -39 32 -56 55 -27 40
-30 51 -28 112 l2 67 -57 6 c-127 12 -209 67 -499 332 l-72 66 -19 -38 c-25
-49 -156 -367 -171 -413 -6 -19 -38 -154 -71 -300 -79 -351 -88 -384 -111
-409 -40 -43 -111 -18 -148 51 -12 23 -76 95 -141 158 -130 126 -140 144 -140
252 l0 57 -43 19 c-82 38 -207 165 -207 213 0 9 53 98 118 196 65 98 183 281
262 406 149 237 209 309 271 322 25 6 40 0 82 -28 81 -53 147 -118 202 -195
28 -39 52 -71 55 -71 3 -1 22 29 44 65 40 70 177 240 229 287 17 15 40 27 52
27 11 0 92 -49 180 -108 88 -59 231 -156 319 -215 87 -60 176 -117 198 -128
43 -22 147 -37 658 -94 325 -36 405 -41 429 -26 9 6 16 35 19 84 5 90 -11 173
-74 363 -50 151 -54 203 -28 330 19 91 35 126 66 148 39 28 76 20 117 -23z"/>
<path d="M3296 2499 c-11 -38 -26 -137 -26 -179 0 -27 16 -94 39 -163 65 -192
84 -293 79 -402 -4 -64 -10 -102 -22 -119 -26 -40 -87 -66 -155 -66 -71 0
-335 27 -729 75 l-284 34 -76 41 c-42 23 -198 124 -346 226 -149 101 -275 184
-282 184 -14 0 -152 -161 -188 -218 -42 -68 -86 -143 -86 -148 0 -2 6 -4 14
-4 7 0 49 -31 92 -70 318 -281 342 -300 400 -320 31 -11 73 -20 93 -20 55 0
110 -19 122 -42 7 -12 9 -48 7 -87 -3 -44 0 -75 9 -93 7 -16 15 -28 16 -28 1
0 88 -9 192 -20 105 -11 197 -20 205 -20 11 0 23 23 37 73 31 102 52 127 111
127 82 0 300 -28 329 -42 26 -12 28 -17 31 -88 2 -41 6 -78 11 -83 9 -9 544
-77 607 -77 43 0 45 2 100 74 l56 75 -26 323 c-14 178 -38 459 -53 626 l-27
302 -36 0 c-76 0 -126 29 -181 104 -18 25 -30 34 -33 25z m-1505 -728 c133
-90 271 -177 306 -193 72 -34 99 -38 612 -98 476 -55 550 -58 622 -31 32 12
78 40 103 62 25 22 46 36 46 31 0 -6 7 -94 16 -196 14 -172 14 -187 -2 -211
-9 -14 -26 -25 -38 -25 -11 0 -111 11 -221 25 -110 14 -203 25 -207 25 -5 0
-8 9 -8 20 0 30 -27 91 -53 118 -50 54 -113 71 -354 93 -109 11 -138 10 -173
-1 -53 -17 -114 -79 -136 -136 -19 -49 -14 -48 -137 -38 l-77 7 0 65 0 66 -52
51 c-55 52 -106 75 -169 75 -84 1 -118 18 -227 113 -159 138 -232 208 -232
222 0 7 23 43 52 79 46 57 54 64 70 53 9 -6 126 -86 259 -176z"/>
<path d="M793 2028 c-17 -18 -88 -125 -159 -238 -70 -113 -179 -283 -241 -379
l-114 -174 33 -34 c44 -46 117 -93 143 -93 12 0 31 -9 43 -20 19 -18 22 -31
22 -105 0 -46 4 -94 9 -107 5 -13 49 -58 97 -101 49 -43 106 -100 126 -128
l36 -50 17 78 c9 43 27 121 40 173 13 52 35 150 50 218 14 67 37 153 50 190
30 88 171 418 196 460 23 40 23 42 2 42 -23 1 -43 17 -74 60 -82 113 -109 145
-165 190 -34 27 -66 50 -71 50 -5 0 -23 -15 -40 -32z m88 -185 c14 -16 42 -52
63 -81 l37 -54 -89 -216 c-95 -230 -95 -230 -143 -447 -17 -77 -34 -143 -37
-147 -4 -4 -17 1 -28 11 -18 14 -22 31 -26 102 -3 59 -11 96 -26 125 -28 55
-101 114 -141 114 -17 0 -31 3 -31 6 0 3 71 117 158 252 87 136 174 273 193
304 19 32 37 58 40 58 3 0 17 -12 30 -27z"/>
<path d="M3980 1669 c0 -2 -7 -80 -15 -174 -8 -93 -13 -171 -11 -173 2 -1 34
0 70 4 50 5 66 10 62 20 -3 7 -26 82 -52 166 -41 135 -54 172 -54 157z"/>
</g>
</svg>
