<?xml version="1.0" standalone="no"?>
<!DOCTYPE svg PUBLIC "-//W3C//DTD SVG 20010904//EN"
 "http://www.w3.org/TR/2001/REC-SVG-20010904/DTD/svg10.dtd">
<svg version="1.0" xmlns="http://www.w3.org/2000/svg"
 width="412.000000pt" height="309.000000pt" viewBox="0 0 412.000000 309.000000"
 preserveAspectRatio="xMidYMid meet">

<g transform="translate(0.000000,309.000000) scale(0.100000,-0.100000)"
fill="#000000" stroke="none">
<path d="M625 2219 c-184 -28 -358 -120 -447 -237 -110 -144 -133 -315 -62
-470 54 -121 126 -180 311 -255 l128 -52 8 -80 c9 -97 35 -153 90 -200 81 -69
-15 -66 1618 -63 l1474 3 58 23 c74 30 168 116 201 185 31 63 46 158 46 297 0
140 -18 181 -103 235 -14 9 -15 25 -7 124 11 129 4 173 -36 221 -36 43 -61 54
-294 132 -217 73 -279 83 -357 57 -183 -59 -259 -282 -150 -441 10 -16 16 -28
14 -28 -2 0 -179 104 -392 230 -219 130 -414 240 -449 251 -129 44 -285 7
-379 -89 -64 -66 -336 -463 -359 -525 -11 -28 -22 -82 -25 -119 l-6 -68 -136
6 c-184 8 -236 24 -386 121 l-120 78 225 6 c245 5 268 10 362 70 139 89 209
260 164 397 -22 64 -90 142 -153 173 -48 24 -51 24 -413 26 -201 0 -392 -3
-425 -8z m828 -132 c52 -39 71 -81 71 -152 0 -102 -61 -188 -173 -243 l-56
-27 -296 -5 c-230 -4 -300 -8 -312 -19 -24 -19 -21 -64 6 -88 40 -37 292 -200
363 -236 106 -53 158 -62 345 -62 208 0 204 -2 211 123 3 48 13 104 22 126 26
62 293 447 343 493 72 68 173 90 270 57 26 -9 309 -172 628 -362 319 -190 589
-347 601 -350 14 -2 28 5 43 24 19 24 21 36 16 74 -19 124 -79 184 -235 235
-142 46 -192 204 -97 312 72 82 126 82 372 0 223 -75 253 -89 261 -123 4 -13
3 -91 -2 -172 -4 -81 -8 -151 -9 -156 0 -5 22 -14 49 -21 26 -7 52 -19 57 -26
5 -8 9 -77 9 -155 0 -105 -4 -153 -17 -189 -23 -67 -93 -136 -164 -161 -52
-18 -102 -19 -1524 -16 -1229 3 -1474 6 -1496 18 -43 22 -69 73 -69 136 0 134
-19 156 -198 227 -151 61 -214 108 -260 195 -24 46 -27 62 -27 151 0 95 2 103
34 163 44 80 122 152 215 197 129 62 148 64 587 62 l396 -2 36 -28z m1935
-563 c12 -8 22 -19 22 -24 0 -5 -27 7 -60 27 -33 19 -60 37 -60 39 0 6 71 -25
98 -42z"/>
<path d="M690 2050 c-145 -11 -253 -55 -341 -137 -149 -139 -128 -367 42 -453
20 -11 83 -38 138 -60 128 -50 146 -62 177 -116 20 -34 27 -63 31 -125 4 -55
11 -87 24 -102 l17 -22 1469 0 1468 0 40 22 c94 50 115 99 115 266 l0 124 -38
6 c-51 9 -75 28 -75 63 0 16 3 97 7 180 l9 151 -199 67 c-110 36 -216 66 -236
66 -73 0 -131 -78 -110 -149 15 -49 45 -75 112 -96 173 -55 262 -161 264 -316
1 -63 -17 -99 -67 -130 -22 -14 -43 -19 -68 -16 -24 3 -202 104 -555 315 -701
418 -671 401 -732 409 -65 7 -126 -14 -169 -60 -55 -59 -311 -441 -322 -482
-6 -22 -11 -69 -11 -105 0 -76 -21 -119 -72 -147 -28 -15 -58 -18 -208 -18
-194 0 -244 9 -355 60 -105 48 -401 249 -425 287 -25 42 -25 94 0 135 34 57
39 58 365 63 l300 5 55 31 c102 58 146 163 98 234 -14 20 -38 40 -58 47 -38
13 -536 15 -690 3z m662 -125 c-6 -31 -49 -71 -91 -84 -25 -7 -133 -11 -302
-11 -146 0 -280 -5 -300 -10 -20 -6 -57 -28 -82 -50 -59 -52 -81 -108 -75
-190 2 -33 2 -60 -1 -60 -3 0 -28 13 -55 28 -72 40 -91 70 -91 147 0 54 4 69
30 107 36 50 114 101 200 128 55 17 89 19 415 17 349 -2 355 -2 352 -22z m853
-39 c34 -15 109 -59 804 -474 373 -223 398 -236 452 -240 111 -8 213 66 240
175 l11 42 29 -15 c28 -14 29 -17 29 -85 0 -80 -16 -119 -55 -137 -19 -9 -271
-12 -1022 -12 l-997 0 27 28 c40 41 58 96 63 190 l5 86 147 214 c169 247 186
261 267 228z m1295 -57 c85 -28 159 -55 163 -59 4 -4 5 -36 1 -73 l-7 -65 -54
59 c-61 65 -129 108 -215 135 -43 13 -58 22 -58 36 0 10 3 18 7 18 5 0 78 -23
163 -51z m-2550 -653 l65 -36 -87 0 -88 0 0 39 c0 22 -3 47 -7 57 -6 16 -3 16
23 -3 16 -11 58 -37 94 -57z"/>
<path d="M2943 802 c-68 -15 -123 -29 -123 -32 0 -5 250 -51 273 -50 4 0 7 25
7 55 0 65 12 63 -157 27z"/>
</g>
</svg>
