<?xml version="1.0" standalone="no"?>
<!DOCTYPE svg PUBLIC "-//W3C//DTD SVG 20010904//EN"
 "http://www.w3.org/TR/2001/REC-SVG-20010904/DTD/svg10.dtd">
<svg version="1.0" xmlns="http://www.w3.org/2000/svg"
 width="412.000000pt" height="309.000000pt" viewBox="0 0 412.000000 309.000000"
 preserveAspectRatio="xMidYMid meet">

<g transform="translate(0.000000,309.000000) scale(0.100000,-0.100000)"
fill="#000000" stroke="none">
<path d="M666 3030 c-210 -24 -358 -113 -421 -253 -29 -64 -74 -292 -114 -577
-79 -567 -77 -600 50 -789 99 -148 345 -366 464 -410 115 -43 242 -14 327 75
118 123 109 332 -18 451 l-45 42 93 77 c51 43 134 108 183 144 101 75 453 320
459 320 2 0 7 -17 11 -37 10 -55 36 -99 114 -199 67 -84 141 -207 141 -234 0
-22 -53 -132 -106 -223 -89 -152 -105 -267 -51 -373 14 -27 72 -98 129 -159
135 -143 310 -341 476 -537 148 -175 193 -217 269 -253 255 -121 559 35 580
299 l6 66 175 91 c142 74 187 93 241 100 142 20 233 62 307 141 133 142 143
345 25 505 -87 119 -407 427 -929 891 -150 134 -279 256 -286 271 -8 15 -22
56 -31 91 -49 187 -170 296 -344 307 -62 4 -87 1 -136 -17 -103 -37 -100 -38
-212 38 -141 97 -225 113 -354 66 -65 -23 -118 -19 -277 20 -79 20 -189 42
-245 50 -130 19 -379 27 -481 16z m495 -164 c48 -9 151 -31 230 -51 164 -40
213 -43 301 -15 108 34 145 29 238 -35 45 -30 104 -67 132 -81 61 -31 104 -29
199 11 66 28 107 28 179 -2 69 -28 98 -68 135 -188 27 -86 44 -121 77 -162 24
-28 151 -147 283 -264 465 -412 699 -632 826 -774 108 -122 129 -157 136 -231
5 -47 2 -63 -26 -118 -49 -101 -105 -135 -262 -160 -89 -14 -111 -23 -334
-137 -132 -67 -242 -123 -244 -125 -2 -2 7 -24 19 -49 21 -43 22 -51 10 -102
-15 -70 -69 -132 -142 -163 -43 -18 -65 -22 -123 -18 -116 8 -161 42 -341 258
-119 142 -302 350 -433 490 -148 158 -151 163 -151 226 0 41 8 66 35 116 19
34 58 110 87 168 49 97 53 110 53 176 0 62 -5 80 -39 147 -21 42 -68 114 -105
159 -93 116 -101 129 -101 160 0 80 44 108 181 115 117 7 131 13 104 44 -34
38 -161 116 -210 128 -40 10 -52 9 -88 -7 -45 -20 -638 -432 -772 -537 -138
-107 -360 -307 -360 -323 0 -11 28 -27 90 -49 97 -36 130 -60 151 -110 54
-127 -54 -266 -180 -232 -49 13 -78 33 -208 140 -168 139 -288 313 -288 419 0
115 72 646 119 878 23 111 36 153 57 184 45 64 134 111 245 128 83 13 421 4
520 -14z"/>
<path d="M611 2764 c-72 -19 -116 -47 -134 -87 -38 -79 -138 -743 -140 -927
l-2 -116 44 -68 c53 -81 127 -157 241 -250 104 -84 122 -93 155 -78 20 9 25
19 25 51 0 47 -9 55 -99 86 -88 30 -124 54 -145 100 -23 47 -12 98 28 138 78
78 302 268 421 357 203 152 691 489 738 510 84 39 184 21 299 -53 119 -76 189
-165 172 -220 -18 -62 -74 -87 -207 -96 l-98 -6 66 -84 c83 -106 138 -198 165
-281 40 -118 16 -218 -104 -428 -84 -149 -89 -128 62 -289 135 -144 314 -346
441 -499 158 -189 190 -215 270 -216 55 0 100 20 130 58 27 35 26 52 -5 113
-25 48 -26 53 -13 88 14 36 26 44 284 176 261 133 273 138 377 157 63 11 123
27 142 39 62 39 84 126 47 187 -61 101 -319 349 -926 891 -164 147 -283 261
-304 292 -20 29 -45 91 -62 147 -31 108 -46 129 -100 146 -32 9 -45 8 -86 -9
-72 -31 -149 -46 -190 -38 -47 9 -122 46 -200 101 -100 69 -94 67 -175 42
-108 -33 -192 -30 -373 15 -82 20 -195 44 -250 52 -132 20 -420 19 -494 -1z
m400 -134 c57 -6 154 -22 214 -36 61 -14 155 -35 209 -48 l99 -23 -99 -70
c-54 -38 -160 -112 -234 -163 -286 -199 -427 -309 -639 -499 l-84 -76 6 85 c7
102 59 483 86 630 11 58 22 122 26 142 5 33 10 39 43 48 78 21 221 25 373 10z
m1338 -247 c24 -82 77 -172 134 -231 23 -24 121 -114 217 -200 557 -499 722
-652 838 -782 50 -57 92 -106 92 -110 0 -4 -26 -11 -57 -15 -32 -3 -78 -11
-103 -17 -64 -16 -589 -284 -627 -320 -44 -42 -66 -91 -72 -165 l-6 -61 -131
156 c-72 87 -198 231 -280 320 -82 90 -164 181 -182 202 l-32 37 36 64 c56 99
112 237 125 309 17 93 -5 194 -69 323 l-49 98 32 13 c148 62 187 240 85 393
l-22 33 24 9 c12 6 24 10 25 10 0 1 10 -29 22 -66z"/>
<path d="M2058 370 c33 -63 74 -139 90 -168 l29 -53 57 47 c32 25 54 50 49 53
-34 29 -197 164 -237 196 l-50 40 62 -115z"/>
</g>
</svg>
